<?xml version="1.0" encoding="utf-8"?>
<!-- Generator: Adobe Illustrator 18.1.1, SVG Export Plug-In . SVG Version: 6.00 Build 0)  -->
<svg version="1.1" id="Layer_1" xmlns="http://www.w3.org/2000/svg" xmlns:xlink="http://www.w3.org/1999/xlink" x="0px" y="0px"
	 viewBox="0 0 127 34.5" enable-background="new 0 0 127 34.5" xml:space="preserve">
<g>
	<g>
		<path fill="#E67E22" d="M36.8,13.5c3.1,0,4.9,2.2,4.9,5.2c0,0.5-0.4,0.9-0.9,0.9H34c0.2,2,1.6,3,3.3,3c1,0,1.9-0.4,2.4-0.7
			c0.5-0.3,0.9-0.2,1.2,0.3l0.3,0.4c0.3,0.5,0.2,0.9-0.3,1.2c-0.7,0.5-2,1.1-3.7,1.1c-3.6,0-5.9-2.6-5.9-5.8
			C31.2,15.9,33.5,13.5,36.8,13.5z M39,18c0-1.5-1-2.4-2.2-2.4c-1.4,0-2.4,1-2.7,2.4H39z"/>
		<path fill="#E67E22" d="M43.2,22.7l0.3-0.4c0.3-0.5,0.7-0.5,1.2-0.2c0.5,0.3,1.3,0.8,2.5,0.8c0.9,0,1.5-0.4,1.5-1.1
			c0-1.8-5.5-1.1-5.5-4.9c0-2.2,1.9-3.3,4.2-3.3c1.5,0,2.5,0.5,3.1,0.8c0.5,0.3,0.6,0.7,0.3,1.2l-0.2,0.4c-0.3,0.5-0.7,0.6-1.2,0.3
			c-0.5-0.2-1.2-0.5-2.1-0.5c-0.9,0-1.5,0.4-1.5,1.1c0,1.8,5.5,1.1,5.5,4.9c0,1.9-1.6,3.4-4.2,3.4c-1.8,0-3-0.7-3.7-1.1
			C42.9,23.6,42.9,23.2,43.2,22.7z"/>
		<path fill="#E67E22" d="M53.3,10.4c0-0.6,0.3-0.9,0.9-0.9h0.9c0.6,0,0.9,0.3,0.9,0.9v10.8c0,1.1,0.5,1.3,0.9,1.3
			c0.4,0,0.7,0.3,0.7,0.8v0.7c0,0.6-0.3,0.9-0.9,0.9c-1.5,0-3.3-0.4-3.3-3.5V10.4z"/>
		<path fill="#F39C12" d="M59.6,10.4c0-0.6,0.3-0.9,0.9-0.9h1c0.6,0,0.9,0.3,0.9,0.9v5.6h7v-5.6c0-0.6,0.3-0.9,0.9-0.9h1
			c0.6,0,0.9,0.3,0.9,0.9v13.5c0,0.6-0.3,0.9-0.9,0.9h-1c-0.6,0-0.9-0.3-0.9-0.9v-5.5h-7v5.5c0,0.6-0.3,0.9-0.9,0.9h-1
			c-0.6,0-0.9-0.3-0.9-0.9V10.4z"/>
		<path fill="#F39C12" d="M75,14.7c0-0.6,0.3-0.9,0.9-0.9h0.9c0.6,0,0.9,0.3,0.9,0.9v5.6c0,1.3,0.3,2.2,1.7,2.2c2,0,3.1-1.7,3.1-3.7
			v-4.1c0-0.6,0.3-0.9,0.9-0.9h0.9c0.6,0,0.9,0.3,0.9,0.9v9.2c0,0.6-0.3,0.9-0.9,0.9h-0.8c-0.6,0-0.9-0.3-0.9-0.9v-0.6
			c0-0.3,0-0.5,0-0.5h0c-0.5,1.1-1.9,2.3-3.8,2.3c-2.4,0-3.8-1.2-3.8-4.2V14.7z"/>
		<path fill="#F39C12" d="M88,14.7c0-0.6,0.3-0.9,0.9-0.9h0.8c0.6,0,0.9,0.3,0.9,0.9v0.7c0,0.2,0,0.5,0,0.5h0
			c0.5-0.9,1.7-2.3,3.9-2.3c2.4,0,3.8,1.3,3.8,4.2v6.2c0,0.6-0.3,0.9-0.9,0.9h-0.9c-0.6,0-0.9-0.3-0.9-0.9v-5.6
			c0-1.3-0.3-2.2-1.7-2.2c-1.9,0-3.2,1.6-3.2,3.6v4.3c0,0.6-0.3,0.9-0.9,0.9h-0.9c-0.6,0-0.9-0.3-0.9-0.9V14.7z"/>
		<path fill="#F39C12" d="M101.4,16.1h-0.6c-0.6,0-0.9-0.3-0.9-0.9v-0.4c0-0.6,0.3-0.9,0.9-0.9h0.6v-2.2c0-0.6,0.3-0.9,0.9-0.9h0.9
			c0.6,0,0.9,0.3,0.9,0.9v2.2h1.6c0.6,0,0.9,0.3,0.9,0.9v0.4c0,0.6-0.3,0.9-0.9,0.9h-1.6v4.3c0,1.6,1,2,1.8,2
			c0.7,0.1,0.9,0.3,0.9,0.9V24c0,0.6-0.4,0.9-1.1,0.9c-2,0-4.3-1.1-4.3-4V16.1z"/>
		<path fill="#F39C12" d="M113.5,13.5c3.1,0,4.9,2.2,4.9,5.2c0,0.5-0.4,0.9-0.9,0.9h-6.7c0.2,2,1.6,3,3.3,3c1,0,1.9-0.4,2.4-0.7
			c0.5-0.3,0.9-0.2,1.2,0.3l0.3,0.4c0.3,0.5,0.2,0.9-0.3,1.2c-0.7,0.5-2,1.1-3.7,1.1c-3.6,0-5.9-2.6-5.9-5.8
			C107.9,15.9,110.2,13.5,113.5,13.5z M115.6,18c0-1.5-1-2.4-2.2-2.4c-1.4,0-2.4,1-2.7,2.4H115.6z"/>
		<path fill="#F39C12" d="M120.3,14.7c0-0.6,0.3-0.9,0.9-0.9h0.8c0.6,0,0.9,0.3,0.9,0.9v1c0,0.4-0.1,0.8-0.1,0.8h0
			c0.4-1.3,1.6-2.8,3.2-2.8c0.6,0,0.8,0.3,0.8,0.9v0.8c0,0.6-0.3,0.9-0.9,0.9c-2,0-3,2-3,4v3.5c0,0.6-0.3,0.9-0.9,0.9h-0.9
			c-0.6,0-0.9-0.3-0.9-0.9V14.7z"/>
	</g>
	<g>
		<g>
			<path fill="#F39C13" d="M19.5,7.5c2.4,2,3.1,7.2,3.1,7.2c0.2,4-0.7,5.3-0.7,5.3l0-0.5c0-2.3-1-3.1-1-3.1
				c-0.3-0.4-0.9,0.3-0.2,1.8c0.7,1.6,0.5,3.8,0.5,3.8c-0.3,4.7-3.9,5-3.9,5c1.2-1.3,0.5-3.1,0.5-3.1c-1.1-2.8-3.3-0.8-3.3-0.8
				c-5.1,5.1-2,11.4-2,11.4C7.3,28.4,9.6,22,9.6,22c-1.3,1.9-3,0.9-3,0.9C8,22.4,8,20.5,8.1,20.5c-0.6,1.2-1.4,1.1-1.4,1.1
				C7.9,20.7,8,18.8,8,18.8c-0.3,1-1.6,2.2-1.6,2.2c1.8-2.8,0.1-5.2,0.1-5.2s-1.4,0-2.1,0c-0.7,0-1.4,2-1.4,2
				C2.9,17.5,3,16.5,3,16.5l-0.1,0.1c-0.3,0.4-0.2,0.6-0.6,1.2c-0.4,0.6-1,0.5-1,0.5c0.6-0.8-0.3-2.9-0.3-2.9h1.4
				c-0.4-0.3-1.5-0.3-1.5-0.3c-0.4-0.4-0.4-1.5-0.4-1.5c0.5-0.3,1.1-1.6,1.1-1.6c-0.4,0.7-1.3,1-1.3,1l-0.1-0.3
				c-0.3-0.5-0.1-1.4,0-1.7c0.1-0.4,1.3-1.2,1.3-1.2s2.3-1,3.1-1.3s0.8-0.6,0.8-0.7c0-0.1,0.1-1,0.5-1.7c0.4-0.7,2.3-1.8,2.3-1.8
				L8.1,4.1C7.4,1.7,9.1,1.6,9.1,1.6c0.6,0.1,0.9-0.1,0.9-0.1c0.5-0.1,1.1-0.8,1.7-1.2C12.4-0.1,13.7,0,13.7,0
				c0.2-0.2,2,1.6,2.1,1.9c0.2,0.3,1.2,0.3,1.2,0.3c0.5,0,1.5,1.2,1.5,1.2c0.5,0,1.1,0.9,1.1,0.9s0.9,1.3,1.5,2.4
				c0.6,1,0.9,2.9,0.9,2.9C21.5,8.7,19.5,7.5,19.5,7.5"/>
			<path fill="#FFFFFF" d="M7.4,7.6c0,0.6-0.9,0.8-0.9,0.8C6.1,8.3,5.7,7.6,5.7,7.6C6.8,7.7,7.4,7.6,7.4,7.6"/>
		</g>
	</g>
</g>
<g>
</g>
<g>
</g>
<g>
</g>
<g>
</g>
<g>
</g>
<g>
</g>
<g>
</g>
<g>
</g>
<g>
</g>
<g>
</g>
<g>
</g>
<g>
</g>
<g>
</g>
<g>
</g>
<g>
</g>
</svg>
