<?xml version="1.0" encoding="utf-8"?>
<!-- Generator: Adobe Illustrator 18.1.1, SVG Export Plug-In . SVG Version: 6.00 Build 0)  -->
<svg version="1.1" id="Layer_1" xmlns="http://www.w3.org/2000/svg" xmlns:xlink="http://www.w3.org/1999/xlink" x="0px" y="0px"
	 viewBox="0 0 279.7 60.7" enable-background="new 0 0 279.7 60.7" xml:space="preserve">
<g>
	<g>
		<path fill="#2C0028" d="M119.9,44.6c-1.4,0.9-3.1,1.3-4.7,1.3c-2.9,0-5.2-2-5.9-4.7c-1.9,3-4.9,4.7-8.5,4.7
			c-6.5,0-11.2-5.4-11.2-11.7c0-6.4,4.7-11.8,11.2-11.8c3.4,0,6.3,1.5,8.2,4.2V23h4.6v15.6c0,1.8,1.1,3.2,3,3.2
			c1.3,0,2.3-0.4,3.3-1.3V44.6z M109,32.2c0-0.2-0.4-1.2-0.5-1.3c-1.2-2.7-3.9-4.4-6.8-4.4c-4.2,0-7.5,3.6-7.5,7.8
			c0,4.1,3.3,7.7,7.5,7.7c2.9,0,5.6-1.8,6.8-4.4c0.1-0.2,0.5-1.2,0.5-1.4V32.2z"/>
		<path fill="#2C0028" d="M153.7,44.6c-1.4,0.9-3.1,1.3-4.7,1.3c-2.9,0-5.2-2-5.9-4.7c-1.8,3-4.9,4.7-8.5,4.7
			c-6.5,0-11.2-5.4-11.2-11.7c0-6.4,4.7-11.8,11.2-11.8c3.4,0,6.3,1.5,8.2,4.4V0.4h4.6v38.1c0,1.8,1.1,3.2,3,3.2
			c1.3,0,2.3-0.4,3.3-1.3V44.6z M142.8,32.4c0-0.2-0.4-1.2-0.4-1.4c-1.2-2.7-3.9-4.6-6.9-4.6c-4.2,0-7.5,3.6-7.5,7.8
			c0,4.1,3.3,7.7,7.5,7.7c3,0,5.7-1.8,6.9-4.6c0.1-0.2,0.4-1.1,0.4-1.4V32.4z"/>
		<path fill="#2C0028" d="M179,36.5c0,5.9-4,9.5-9.8,9.5s-9.8-3.5-9.8-9.5V23h4.6v13c0,3.4,1.9,5.9,5.5,5.9c3.6,0,5.5-2.5,5.5-5.9
			v-5.5c-2.3-0.1-4.2-1.6-4.2-4c0-2.2,1.8-4,4-4c2.3,0,4.2,1.9,4.2,4.2V36.5z"/>
		<path fill="#2C0028" d="M191.9,14.2c-1.9,0-3.5-1.6-3.5-3.5c0-1.9,1.6-3.5,3.5-3.5c2,0,3.5,1.6,3.5,3.5
			C195.5,12.6,193.9,14.2,191.9,14.2z M200.5,44.6c-1.3,0.9-3,1.3-4.7,1.3c-3.8,0-6.2-3.3-6.2-6.9V23h4.6v15.6c0,1.8,1.1,3.2,3,3.2
			c1.3,0,2.3-0.4,3.3-1.3V44.6z"/>
		<path fill="#2C0028" d="M214.4,60.1l-1.5-4c4-0.4,7-3.6,7-7.7c0-4.2-3-7.3-7.2-7.3c-2.4,0-4.7,1-6.3,2.8l-3.1-3.1L217,27.4h-13.7
			V23h19.3l1.1,3.6l-11.4,11.4c0.6-0.3,1.3-0.4,2.1-0.4c5.9,0,10,5,10,10.7C224.4,54,220.2,59.4,214.4,60.1z"/>
		<path fill="#2C0028" d="M238.6,40.6c1.3,0.9,2.8,1.3,4.4,1.3c2.4,0,4.9-0.5,6.9-2v4.6c-2.1,1.1-4.6,1.5-6.9,1.5
			c-6.8,0-12.3-4.9-12.3-11.8c0-6.3,5.2-11.6,11.4-11.6c4,0,7.3,1.8,9.7,5L238.6,40.6z M246.1,28c-1.1-0.9-2.7-1.5-4.1-1.5
			c-4.2,0-7.1,3.5-7.1,7.6c0,1.5,0.4,2.8,1.2,4L246.1,28z"/>
		<path fill="#2C0028" d="M279,49.9c0,4.6-3.2,9.6-8,10.1l-1.6-3.9c2.9-0.4,5.1-3.4,5.1-6.2v-7.8c-1.4,2.3-3.8,3.9-6.5,3.9
			c-5.2,0-8.5-3.9-8.5-8.9V23h4.6v13.7c0,3,1.6,5.2,4.9,5.2c3,0,5.6-2.9,5.6-6.8V23h4.6V49.9z"/>
	</g>
</g>
<g>
	<path fill="#2C0028" d="M76.2,48.8c-1.7-0.9-3.1,0.5-2.6,1.8c-0.3-0.9,1.8-0.9,1.8,0.6c0,1.2-0.8,1.4-2.2,1.2
		C65,51.4,70.5,35.9,56.8,32c-7.2-2-12.7-0.5-15.4,1.8c0,0,0,0,0,0c0,0,0,0,0,0c-2.7-2.4-8.2-3.9-15.4-1.8
		c-13.8,3.9-8.2,19.4-16.4,20.5c-1.4,0.2-2.2-0.1-2.2-1.2c-0.1-1.5,2.1-1.6,1.8-0.6c0.5-1.3-0.9-2.7-2.6-1.8c-2,1.1-2.6,7.4,4.1,7.4
		c10.9,0,25.5-4.3,30.7-9.6c5.2,5.3,19.8,9.5,30.7,9.6C78.8,56.2,78.2,49.8,76.2,48.8z"/>
	<g>
		<path opacity="0.4" fill="#97BAA9" d="M35.1,16.4c0,4.6-5.8,12.3-16.1,11.8C12,27.9,6.1,18.6,6.1,14s6.1-7.8,13.1-8
			C35.4,5.6,35.1,11.9,35.1,16.4z"/>
		<path opacity="0.4" fill="#97BAA9" d="M75.5,16.6c0,4.6-5.8,12.3-16.1,11.8c-7-0.3-12.9-9.7-12.9-14.2c0-4.6,6.1-7.8,13.1-8
			C75.8,5.8,75.5,12,75.5,16.6z"/>
		<path fill="#2C0028" d="M41.4,11.2c2.8,0,5.2,1.5,6,3.7c0.2-0.5,0.3-1,0.3-1.6c0-2.9-2.8-5.3-6.3-5.3c-3.5,0-6.3,2.4-6.3,5.3
			c0,0.6,0.1,1.1,0.3,1.6C36.2,12.8,38.6,11.2,41.4,11.2z"/>
		<polygon opacity="0.2" fill="#FFFFFF" points="13,25.9 31.1,8.8 31.5,9.8 		"/>
		<polygon opacity="0.2" fill="#FFFFFF" points="11.6,25.4 26.4,6.1 30.9,8.4 		"/>
		<path fill="#2C0028" d="M36.9,10.6c-0.6-4.8-11.2-7.2-20.2-6.1l0.1,0L0,4.9v5.7L4.1,13C3.7,19.2,8,27.9,16,29.2
			c8.2,1.4,13.3,0.5,17-4.6C36.6,19.6,37.4,15,36.9,10.6z M30.9,23.1c-3,4.2-7.1,4.8-13.8,3.7C10.5,25.7,7,18.3,7.6,13.3
			c1-9,25.8-8.2,26.6-1.4C34.6,15.4,33.9,19,30.9,23.1z"/>
		<polygon opacity="0.2" fill="#FFFFFF" points="53.5,26.1 71.5,8.9 71.9,9.9 		"/>
		<polygon opacity="0.2" fill="#FFFFFF" points="52,25.6 66.8,6.3 71.4,8.6 		"/>
		<path fill="#2C0028" d="M82.5,5.1L65.8,4.6l0.1,0c-9-1.1-19.7,1.3-20.3,6.1c-0.5,4.4,0.3,8.9,3.9,13.9c3.7,5.1,8.8,5.9,17,4.6
			c8-1.3,12.2-10,11.9-16.2l4.1-2.4V5.1z M65.3,27c-6.7,1.1-10.8,0.4-13.8-3.7c-3-4.1-3.6-7.7-3.2-11.3c0.8-6.7,25.6-7.6,26.6,1.4
			C75.5,18.4,72,25.9,65.3,27z"/>
	</g>
	<path opacity="0.5" fill="#080013" d="M40.1,34c-1.1-2-6.9-2.5-9.2-2.2c-3,0.4-5.9,2.2-7.9,4.6c-4.5,5.2-3.9,12.6-10.4,16.4
		c3.1-1.3,5.5-3,7.1-5.9c1.5-2.8,2.6-6.2,5-8.5c2.2-2.1,5.4-3.6,8.3-2.8c1.4,0.4,2.5,1.6,4.2,1.1c1-0.3,3.1-2.4,2-3.1"/>
	<path opacity="0.5" fill="#080013" d="M43.3,34.8c1.1-2,6.9-2.5,9.2-2.2c3,0.4,5.9,2.2,7.9,4.6c4.5,5.2,3.9,12.6,10.4,16.4
		c-3.1-1.3-5.5-3-7.1-5.9c-1.5-2.8-2.6-6.2-5-8.5c-2.2-2.1-5.4-3.6-8.3-2.8c-1.4,0.4-2.5,1.6-4.2,1.1c-1-0.3-3.1-2.4-2-3.1"/>
</g>
</svg>
