<?xml version="1.0" encoding="utf-8"?>
<!-- Generator: Adobe Illustrator 18.1.1, SVG Export Plug-In . SVG Version: 6.00 Build 0)  -->
<svg version="1.1" id="Layer_1" xmlns="http://www.w3.org/2000/svg" xmlns:xlink="http://www.w3.org/1999/xlink" x="0px" y="0px"
	 viewBox="0 0 318.7 318.7" enable-background="new 0 0 318.7 318.7" xml:space="preserve">
<path fill="#2C0028" d="M306.7,318.7H12c-6.6,0-12-5.4-12-12V12C0,5.4,5.4,0,12,0h294.7c6.6,0,12,5.4,12,12v294.7
	C318.7,313.3,313.3,318.7,306.7,318.7z"/>
<g>
	<g id="character">
		<g>
			<g>
				<g>
					<g>
						<g>
							<path fill="#4D3010" d="M182.4,254.8c-3.2,0-3.5-1.8-5-2.6c-0.3-0.2-2.6-0.1-3,0.3c0.2-0.1,0.5,0,0.9,0.3
								c1.5,0.9,3.6,2.8,6.9,2.8c3.2,0,5.8-3.2,7.7-2.7c0,0-0.9-0.5-2.9,0.5C185.5,253.9,184.6,254.8,182.4,254.8z"/>
							<path fill="#FFFFFF" d="M205,260.7c-0.2,0.2-0.6,0.3-1.1,0.3c-1.9,0.2-8,1-14.3-0.1c-6.3-1.1-6.9-0.6-9.2-0.5
								c-2.2,0.1-6.8-1.3-6.8-1.3c-0.5,0.2-0.3,1.5-0.2,2.4c0,1,4.5,1.6,6.8,1.5c2.3-0.1,2.9-0.6,9.2,0.5c6.3,1.1,12.4,0.3,14.3,0.1
								c1.9-0.2,1.5-0.9,1.5-2.6C205.2,260.7,205,260.7,205,260.7L205,260.7z"/>
							<path fill="#231F20" d="M203.7,263.6c-1.9,0.2-8,1-14.3-0.1c-6.3-1.1-6.9-0.6-9.2-0.5c-2.3,0.1-6.8-0.5-6.8-1.5
								c0-0.6-0.1-0.4-0.1,0.3c0,1,4.5,1.6,6.8,1.5c2.3-0.1,2.9-0.6,9.2,0.5c6.3,1.1,12.4,0.3,14.3,0.1c1.1-0.1,1.4-0.4,1.5-1
								C205.1,263.3,204.7,263.5,203.7,263.6z"/>
							<g>
								<path fill="#754C28" d="M180.4,260.4c2.3-0.1,2.9-0.6,9.2,0.5c6.3,1.1,12.4,0.3,14.3,0.1c0.5-0.1,0.9-0.2,1.1-0.3
									c-0.4-1.5-3.8-2.4-5.7-2.9c-1.9-0.5-7.7-4.5-9.6-5c-1.8-0.5-4.4,2.7-7.7,2.7c-3.2,0-5.4-1.9-6.9-2.8
									c-1.5-0.9-0.9,1.3-1.1,1.7c-1.1,2.3-0.5,4.7-0.5,4.7S178.2,260.5,180.4,260.4z"/>
								<g>
									<path fill="#603D1D" d="M204.3,259.8c-2.8,0.2-7.2,0.4-11.7-0.4c-6.3-1.1-6.9-0.6-9.2-0.5c-2.2,0.1-6.8-1.3-6.8-1.3
										s-0.4-1.8,0.2-3.9c-0.6-0.4-1.1-0.8-1.6-1.1c-1.5-0.9-0.9,1.3-1.1,1.7c-1.1,2.3-0.5,4.7-0.5,4.7s4.6,1.4,6.8,1.3
										c2.3-0.1,2.9-0.6,9.2,0.5c6.3,1.1,12.4,0.3,14.3,0.1c0.5-0.1,0.9-0.2,1.1-0.3C204.9,260.4,204.7,260.1,204.3,259.8z"/>
								</g>
								<path fill="#231F20" d="M196.8,261.6c-2.6,0-5-0.2-7.2-0.6c-2.8-0.5-4.7-0.7-6.1-0.7c-0.7,0-1.3,0.1-1.8,0.1
									c-0.4,0-0.7,0.1-1.2,0.1c-0.1,0-0.2,0-0.3,0l0,0c-2.3,0-6.4-1.3-6.5-1.3l-0.1,0l0-0.1c0-0.1-0.5-2.4,0.5-4.8
									c0-0.1,0-0.3,0-0.6c0-0.5,0-1.1,0.2-1.3c0.2-0.2,0.6-0.2,1,0.1c0.2,0.1,0.4,0.3,0.7,0.4c1.4,1,3.4,2.3,6.1,2.3
									c1.6,0,3.1-0.9,4.4-1.6c1.1-0.6,2-1.1,2.8-1.1c0.2,0,0.3,0,0.4,0.1c0.9,0.2,2.7,1.3,4.7,2.5c1.9,1.1,3.9,2.3,4.9,2.6
									c2.6,0.7,5.3,1.6,5.8,3l0,0.1l-0.1,0.1c-0.2,0.2-0.6,0.3-1.1,0.3c-0.1,0-0.3,0-0.5,0.1C202.1,261.3,199.7,261.6,196.8,261.6
									z M183.5,260c1.4,0,3.3,0.2,6.2,0.7c2.2,0.4,4.6,0.6,7.1,0.6c2.9,0,5.3-0.2,6.6-0.4c0.2,0,0.4,0,0.5-0.1
									c0.4,0,0.7-0.1,0.9-0.2c-0.6-1.4-4-2.3-5.5-2.7c-1-0.3-3-1.5-5-2.6c-1.8-1.1-3.7-2.2-4.6-2.4c-0.1,0-0.2,0-0.4,0
									c-0.8,0-1.6,0.5-2.7,1.1c-1.3,0.8-2.9,1.7-4.6,1.7c-2.8,0-4.8-1.4-6.3-2.4c-0.2-0.2-0.5-0.3-0.7-0.4
									c-0.3-0.2-0.4-0.2-0.5-0.2c-0.1,0-0.1,0-0.2,0.1c-0.2,0.2-0.2,0.7-0.2,1.1c0,0.3,0,0.5-0.1,0.7c-0.9,2-0.6,4.1-0.5,4.5
									c0.6,0.2,4.3,1.3,6.4,1.3l0,0c0.1,0,0.2,0,0.3,0c0.4,0,0.8-0.1,1.2-0.1C182.2,260.1,182.7,260,183.5,260z"/>
							</g>
						</g>
						<path fill="#231F20" d="M204.7,260.4l0.1-0.2c-0.1,0-0.2,0-0.3,0.1c-0.1,0.1-0.3,0.2-0.7,0.2c-0.1,0-0.3,0-0.5,0.1
							c-2.4,0.2-7.9,0.8-13.7-0.2c-5.1-0.9-6.5-0.8-8.1-0.6c-0.3,0-0.7,0.1-1.1,0.1c-0.5-1.6-1.4-2.8-2.4-3.6
							c0.5,0.2,1.1,0.5,1.8,0.6c0.5,0.1,1.1,0.2,1.7,0.3c0.6,0,1.3,0,2-0.2c0.7-0.2,1.3-0.4,2-0.7c0.7-0.3,1.3-0.6,1.9-1
							c0.6-0.3,1.2-0.7,1.8-1.1c0.2-0.1,0.6,0,0.9,0.1c0.3,0.1,0.6,0.3,0.9,0.5c1.1,0.7,2.2,1.4,3.1,1.9c1,0.5,1.8,0.8,2.4,1
							c0.3,0.1,0.5,0.2,0.7,0.2c0.2,0,0.3,0.1,0.3,0.1s-0.3-0.1-0.9-0.3c-0.6-0.2-1.4-0.6-2.3-1.1c-0.5-0.3-1-0.6-1.5-0.9
							c-0.5-0.3-1-0.7-1.6-1.1c-0.3-0.2-0.6-0.4-0.9-0.5c-0.2-0.1-0.3-0.2-0.5-0.2c-0.2,0-0.4-0.1-0.6,0c-0.6,0.3-1.2,0.7-1.9,1.1
							c-0.6,0.3-1.3,0.7-1.9,0.9c-0.6,0.3-1.3,0.5-1.9,0.7c-0.6,0.2-1.3,0.2-1.9,0.2c-0.6,0-1.2-0.1-1.7-0.2c-0.5-0.1-1-0.3-1.4-0.4
							c-0.3-0.1-0.5-0.2-0.7-0.3c-1.8-1.4-3.7-1.7-3.7-1.7l0,0.3c0,0,4.6,0.7,6.1,5.3c-2.2,0-6.5-1.3-6.6-1.3l-0.1,0.3
							c0.2,0.1,4.6,1.4,6.8,1.3c0.4,0,0.8-0.1,1.2-0.1c1.5-0.2,2.9-0.3,8,0.6c2.5,0.4,5,0.6,7.2,0.6c2.9,0,5.3-0.2,6.6-0.4
							c0.2,0,0.4,0,0.5-0.1C204.3,260.7,204.6,260.5,204.7,260.4C204.7,260.4,204.8,260.4,204.7,260.4
							C204.8,260.4,204.8,260.4,204.7,260.4z"/>
						<path fill="#FAAF40" d="M197.6,257c0,0-0.6-0.2-1.5,0.9c-0.6,0.8-1,0.2-0.7-0.3c0.2-0.3,0.8-0.8,1.3-1
							C197.1,256.4,197.7,256.5,197.6,257z"/>
						<path fill="#FAAF40" d="M195.9,256c0,0-0.6-0.2-1.5,0.9c-0.6,0.8-1,0.2-0.7-0.3c0.2-0.3,0.8-0.8,1.3-1
							C195.4,255.4,196,255.6,195.9,256z"/>
						<path fill="#FAAF40" d="M194.4,255.1c0,0-0.6-0.2-1.5,0.9c-0.6,0.8-1,0.2-0.7-0.3c0.2-0.3,0.8-0.8,1.3-1
							C193.8,254.5,194.5,254.7,194.4,255.1z"/>
						<path fill="#FAAF40" d="M192.8,254.2c0,0-0.6-0.2-1.5,0.9c-0.6,0.8-1,0.2-0.7-0.3c0.2-0.3,0.8-0.8,1.3-1
							C192.3,253.6,192.9,253.8,192.8,254.2z"/>
					</g>
					<g>
						<path fill="#EACFAB" d="M177.4,250.1l0,2c-0.8,0.4-1.2,1.1-1.2,1.1l1.2,0.7c0,0,2.3,1.6,5.2,1.5c1.8-0.1,4.8-1.9,4.8-1.9v-4.5
							C187.4,248.9,181.9,250.6,177.4,250.1z"/>
						<path fill="#E8DAC4" d="M181.1,251.4c2.1,0.2,4.4,0.3,6.2,0.3v-1.5c0,0-5.4,0.5-10,0l0,2c-1,0.5-1.2,1.1-1.2,1.1l1.2,0.7
							c0,0,1.8,1.4,3.8,1.5V251.4z"/>
					</g>
				</g>
				<g>
					<g>
						<g>
							<path fill="#4D3010" d="M135.3,254.8c3.2,0,3.5-1.8,5-2.6c0.3-0.2,2.6-0.1,3,0.3c-0.2-0.1-0.5,0-0.9,0.3
								c-1.5,0.9-3.6,2.8-6.9,2.8c-3.2,0-5.8-3.2-7.7-2.7c0,0,0.9-0.5,2.9,0.5C132.1,253.9,133,254.8,135.3,254.8z"/>
							<path fill="#FFFFFF" d="M112.7,260.7c0.2,0.2,0.6,0.3,1.1,0.3c1.9,0.2,8,1,14.3-0.1c6.3-1.1,6.9-0.6,9.2-0.5
								c2.2,0.1,6.8-1.3,6.8-1.3c0.5,0.2,0.3,1.5,0.2,2.4c0,1-4.5,1.6-6.8,1.5c-2.3-0.1-2.9-0.6-9.2,0.5c-6.3,1.1-12.4,0.3-14.3,0.1
								c-1.9-0.2-1.5-0.9-1.5-2.6C112.5,260.7,112.7,260.7,112.7,260.7L112.7,260.7z"/>
							<path fill="#231F20" d="M113.9,263.6c1.9,0.2,8,1,14.3-0.1c6.3-1.1,6.9-0.6,9.2-0.5c2.3,0.1,6.8-0.5,6.8-1.5
								c0-0.6,0.1-0.4,0.1,0.3c0,1-4.5,1.6-6.8,1.5c-2.3-0.1-2.9-0.6-9.2,0.5c-6.3,1.1-12.4,0.3-14.3,0.1c-1.1-0.1-1.4-0.4-1.5-1
								C112.6,263.3,113,263.5,113.9,263.6z"/>
							<g>
								<path fill="#754C28" d="M137.2,260.4c-2.3-0.1-2.9-0.6-9.2,0.5c-6.3,1.1-12.4,0.3-14.3,0.1c-0.5-0.1-0.9-0.2-1.1-0.3
									c0.4-1.5,3.8-2.4,5.7-2.9c1.9-0.5,7.7-4.5,9.6-5c1.8-0.5,4.4,2.7,7.7,2.7c3.2,0,5.4-1.9,6.9-2.8c1.5-0.9,0.9,1.3,1.1,1.7
									c1.1,2.3,0.5,4.7,0.5,4.7S139.5,260.5,137.2,260.4z"/>
								<g>
									<path fill="#603D1D" d="M113.3,259.8c2.8,0.2,7.2,0.4,11.7-0.4c6.3-1.1,6.9-0.6,9.2-0.5c2.2,0.1,6.8-1.3,6.8-1.3
										s0.4-1.8-0.2-3.9c0.6-0.4,1.1-0.8,1.6-1.1c1.5-0.9,0.9,1.3,1.1,1.7c1.1,2.3,0.5,4.7,0.5,4.7s-4.6,1.4-6.8,1.3
										c-2.3-0.1-2.9-0.6-9.2,0.5c-6.3,1.1-12.4,0.3-14.3,0.1c-0.5-0.1-0.9-0.2-1.1-0.3C112.8,260.4,113,260.1,113.3,259.8z"/>
								</g>
								<path fill="#231F20" d="M114.3,261.2c-0.2,0-0.4,0-0.5-0.1c-0.5-0.1-0.9-0.2-1.1-0.3l-0.1-0.1l0-0.1c0.4-1.4,3.1-2.3,5.8-3
									c1-0.3,3-1.4,4.9-2.6c1.9-1.1,3.7-2.2,4.7-2.5c0.1,0,0.3-0.1,0.4-0.1c0.8,0,1.7,0.5,2.8,1.1c1.3,0.8,2.8,1.6,4.4,1.6
									c2.7,0,4.7-1.4,6.1-2.3c0.2-0.2,0.5-0.3,0.7-0.4c0.5-0.3,0.8-0.3,1-0.1c0.3,0.3,0.3,0.8,0.2,1.3c0,0.2,0,0.5,0,0.6
									c1.1,2.4,0.6,4.7,0.5,4.8l0,0.1l-0.1,0c-0.2,0.1-4.2,1.3-6.5,1.3l0,0c-0.1,0-0.2,0-0.3,0c-0.4,0-0.8-0.1-1.2-0.1
									c-0.6-0.1-1.1-0.1-1.8-0.1c-1.4,0-3.3,0.2-6.1,0.7c-2.2,0.4-4.6,0.6-7.2,0.6C118,261.6,115.6,261.3,114.3,261.2z
									 M136.1,260.1c0.4,0,0.7,0.1,1.2,0.1c0.1,0,0.2,0,0.3,0l0,0c2.1,0,5.8-1.1,6.4-1.3c0.1-0.4,0.4-2.5-0.5-4.5
									c-0.1-0.1-0.1-0.4-0.1-0.7c0-0.4,0-0.9-0.2-1.1c0,0-0.1-0.1-0.2-0.1c-0.1,0-0.2,0-0.5,0.2c-0.2,0.1-0.4,0.3-0.7,0.4
									c-1.5,1-3.5,2.4-6.3,2.4c-1.7,0-3.2-0.9-4.6-1.7c-1-0.6-1.9-1.1-2.7-1.1c-0.1,0-0.3,0-0.4,0c-0.9,0.2-2.8,1.4-4.6,2.4
									c-2,1.2-4,2.3-5,2.6c-1.5,0.4-5,1.3-5.5,2.7c0.2,0.1,0.5,0.2,0.9,0.2c0.1,0,0.3,0,0.5,0.1c1.3,0.1,3.7,0.4,6.6,0.4
									c2.5,0,4.9-0.2,7.1-0.6c2.9-0.5,4.8-0.7,6.2-0.7C134.9,260,135.5,260.1,136.1,260.1z"/>
							</g>
						</g>
						<path fill="#231F20" d="M112.9,260.4l-0.1-0.2c0.1,0,0.2,0,0.3,0.1c0.1,0.1,0.3,0.2,0.7,0.2c0.1,0,0.3,0,0.5,0.1
							c2.4,0.2,7.9,0.8,13.7-0.2c5.1-0.9,6.5-0.8,8.1-0.6c0.3,0,0.7,0.1,1.1,0.1c0.5-1.6,1.4-2.8,2.4-3.6c-0.5,0.2-1.1,0.5-1.8,0.6
							c-0.5,0.1-1.1,0.2-1.7,0.3c-0.6,0-1.3,0-2-0.2c-0.7-0.2-1.3-0.4-2-0.7c-0.7-0.3-1.3-0.6-1.9-1c-0.6-0.3-1.2-0.7-1.8-1.1
							c-0.2-0.1-0.6,0-0.9,0.1c-0.3,0.1-0.6,0.3-0.9,0.5c-1.1,0.7-2.2,1.4-3.1,1.9c-1,0.5-1.8,0.8-2.4,1c-0.3,0.1-0.5,0.2-0.7,0.2
							c-0.2,0-0.3,0.1-0.3,0.1s0.3-0.1,0.9-0.3c0.6-0.2,1.4-0.6,2.3-1.1c0.5-0.3,1-0.6,1.5-0.9c0.5-0.3,1-0.7,1.6-1.1
							c0.3-0.2,0.6-0.4,0.9-0.5c0.2-0.1,0.3-0.2,0.5-0.2c0.2,0,0.4-0.1,0.6,0c0.6,0.3,1.2,0.7,1.9,1.1c0.6,0.3,1.3,0.7,1.9,0.9
							c0.6,0.3,1.3,0.5,1.9,0.7c0.6,0.2,1.3,0.2,1.9,0.2c0.6,0,1.2-0.1,1.7-0.2c0.5-0.1,1-0.3,1.4-0.4c0.3-0.1,0.5-0.2,0.7-0.3
							c1.8-1.4,3.7-1.7,3.7-1.7l0,0.3c0,0-4.6,0.7-6.1,5.3c2.2,0,6.5-1.3,6.6-1.3l0.1,0.3c-0.2,0.1-4.6,1.4-6.8,1.3
							c-0.4,0-0.8-0.1-1.2-0.1c-1.5-0.2-2.9-0.3-8,0.6c-2.5,0.4-5,0.6-7.2,0.6c-2.9,0-5.3-0.2-6.6-0.4c-0.2,0-0.4,0-0.5-0.1
							C113.4,260.7,113.1,260.5,112.9,260.4C112.9,260.4,112.9,260.4,112.9,260.4C112.9,260.4,112.9,260.4,112.9,260.4z"/>
						<path fill="#FAAF40" d="M120,257c0,0,0.6-0.2,1.5,0.9c0.6,0.8,1,0.2,0.7-0.3c-0.2-0.3-0.8-0.8-1.3-1
							C120.6,256.4,120,256.5,120,257z"/>
						<path fill="#FAAF40" d="M121.8,256c0,0,0.6-0.2,1.5,0.9c0.6,0.8,1,0.2,0.7-0.3c-0.2-0.3-0.8-0.8-1.3-1
							C122.3,255.4,121.7,255.6,121.8,256z"/>
						<path fill="#FAAF40" d="M123.3,255.1c0,0,0.6-0.2,1.5,0.9c0.6,0.8,1,0.2,0.7-0.3c-0.2-0.3-0.8-0.8-1.3-1
							C123.8,254.5,123.2,254.7,123.3,255.1z"/>
						<path fill="#FAAF40" d="M124.9,254.2c0,0,0.6-0.2,1.5,0.9c0.6,0.8,1,0.2,0.7-0.3c-0.2-0.3-0.8-0.8-1.3-1
							C125.4,253.6,124.8,253.8,124.9,254.2z"/>
					</g>
					<g>
						<path fill="#EACFAB" d="M140.3,250.1l0,2c0.8,0.4,1.2,1.1,1.2,1.1l-1.2,0.7c0,0-2.3,1.6-5.2,1.5c-1.8-0.1-4.8-1.9-4.8-1.9
							v-4.5C130.3,248.9,135.7,250.6,140.3,250.1z"/>
						<path fill="#E8DAC4" d="M136.5,251.4c-2.1,0.2-4.6,0.2-6.2-0.2v-1c0,0,5.4,0,10,0l0,2c1,0.5,1.2,1.1,1.2,1.1l-1.2,0.7
							c0,0-1.8,1.4-3.8,1.5V251.4z"/>
					</g>
				</g>
			</g>
			<g>
				<g>
					<path fill="#C55640" d="M122.2,166.9l5.9,80.9c0,0,2.1,1.9,6.7,1.9c4.6,0,6.7-1.9,6.7-1.9v-57c0,0,9.8-1.2,17.5-1.2
						c7.7,0,16.5,1.2,16.5,1.2v57c0,0,1.9,1.9,7,1.9c5.1,0,6.4-1.9,6.4-1.9l6.3-80.9H122.2z"/>
					<g>
						<path fill="#923E2C" d="M132.7,247.9l-5.9-80.9h-4.6l5.9,80.6c0,0,2.1,1.9,6.7,1.9c0.9,0,1.6-0.1,2.3-0.2
							C134.1,248.8,132.7,247.9,132.7,247.9z"/>
						<path fill="#923E2C" d="M180.1,247.9l0-56.3l-4.6-0.7v56.6c0,0,1.9,1.9,7,1.9c0.9,0,1.6-0.1,2.3-0.2
							C181.5,248.8,180.1,247.9,180.1,247.9z"/>
					</g>
					<g>
						<g>
							<path fill="#591D0B" d="M195.2,166.6l-36.5,0.1l-18.3,0.1l-18.3,0.1l1.3,20.3l1.4,20.2l2.8,40.5l0,0.1l0.1,0.1
								c0.3,0.2,0.5,0.4,0.8,0.5c0.3,0.2,0.5,0.3,0.8,0.4c0.3,0.1,0.6,0.2,0.9,0.3c0.3,0.1,0.6,0.2,0.9,0.3c0.3,0.1,0.6,0.2,0.9,0.2
								l0.9,0.1c0.3,0,0.6,0,0.9,0.1c0.3,0,0.6,0,0.9,0l0.9,0c0.3,0,0.6,0,0.9-0.1l0.9-0.1c0.3,0,0.6-0.1,0.9-0.2
								c0.3-0.1,0.6-0.1,0.9-0.3c0.3-0.1,0.6-0.2,0.9-0.3c0.3-0.1,0.6-0.3,0.8-0.4c0.3-0.2,0.5-0.3,0.8-0.5l0.1-0.1l0-0.2l0-14.2
								l-0.1-14.2l-0.1-14.2l0-13.9c0.7-0.1,1.5-0.1,2.3-0.2c1-0.1,2.1-0.2,3.3-0.3c1.2-0.1,2.4-0.1,3.7-0.2c1.3-0.1,2.6-0.1,4-0.2
								c0.7,0,1.4,0,2-0.1c0.7,0,1.4,0,2.1,0c1.4,0,2.8,0,4.1,0c0.7,0,1.3,0,2,0c0.7,0,1.3,0.1,2,0.1c0.6,0,1.3,0.1,1.9,0.1
								c0.6,0,1.2,0.1,1.8,0.1c0.3,0,0.6,0,0.9,0.1l1.7,0.2c0.7,0.1,1.3,0.2,2,0.2l-0.2,56.8v0.1l0.1,0.1c0.3,0.2,0.5,0.4,0.8,0.6
								c0.3,0.2,0.6,0.3,0.8,0.4c0.3,0.1,0.6,0.2,0.9,0.3c0.3,0.1,0.6,0.2,0.9,0.3c0.3,0.1,0.6,0.2,0.9,0.2l0.9,0.1
								c0.3,0.1,0.6,0.1,0.9,0.1l0.9,0l0.2,0c0.1,0,0.2,0,0.2,0l0.4,0l0.9,0c0.3,0,0.6-0.1,0.9-0.1c0.3-0.1,0.6-0.1,0.9-0.2l0.9-0.2
								c0.3-0.1,0.6-0.2,0.9-0.3c0.3-0.1,0.6-0.3,0.8-0.5l0.4-0.3c0.1-0.1,0.1-0.1,0.2-0.2l0.1-0.1l0.1-0.1l0.1-0.1l0-0.1l3.2-40.5
								l1.6-20.2l1.5-20.2l0-0.4L195.2,166.6z M193.2,187.1l-1.6,20.2l-3.1,40.4l-0.1,0.1c0,0-0.1,0.1-0.1,0.1l-0.3,0.2
								c-0.2,0.1-0.5,0.3-0.7,0.4c-0.3,0.1-0.5,0.2-0.8,0.3l-0.8,0.2c-0.3,0.1-0.6,0.1-0.8,0.1l-0.4,0.1c-0.1,0-0.3,0-0.4,0l-0.9,0
								l-0.4,0c-0.1,0-0.2,0-0.2,0l-0.2,0l-0.9,0c-0.3,0-0.6,0-0.9-0.1l-0.9-0.1c-0.3,0-0.6-0.1-0.8-0.2c-0.3-0.1-0.6-0.1-0.8-0.2
								c-0.3-0.1-0.5-0.2-0.8-0.3c-0.2-0.1-0.5-0.2-0.7-0.4c-0.2-0.1-0.4-0.2-0.6-0.4l-0.2-56.7c0.4,0,0.9,0.1,1.2,0.1
								c0.8,0.1,1.6,0.2,2.2,0.3c1.2,0.2,1.9,0.3,1.9,0.3s-0.7-0.2-1.8-0.5c-0.6-0.1-1.3-0.3-2.1-0.5c-0.8-0.2-1.8-0.3-2.8-0.5
								c-1-0.2-2.1-0.3-3.3-0.5c-0.6-0.1-1.2-0.2-1.8-0.2c-0.6,0-1.3-0.1-1.9-0.1c-1.3-0.1-2.6-0.2-4-0.2c-1.4-0.1-2.8,0-4.1,0
								c-0.7,0-1.4,0-2.1,0.1c-0.7,0-1.4,0.1-2.1,0.1c-0.7,0-1.4,0.1-2,0.1c-0.7,0.1-1.3,0.1-2,0.2c-1.3,0.1-2.5,0.2-3.7,0.4
								c-0.6,0.1-1.2,0.1-1.7,0.2c-0.6,0.1-1.1,0.2-1.6,0.2c-1,0.1-2,0.3-2.8,0.5c-0.8,0.2-1.5,0.3-2.1,0.4
								c-0.6,0.1-1.1,0.2-1.4,0.3c-0.3,0.1-0.5,0.1-0.5,0.1s0.2,0,0.5-0.1c0.3,0,0.8-0.1,1.4-0.2c0.6-0.1,1.3-0.1,2.2-0.2
								c0.1,0,0.2,0,0.2,0l0,13.9l-0.1,14.2l-0.1,14.2l0,14.1c-0.2,0.1-0.4,0.3-0.6,0.4c-0.2,0.2-0.5,0.3-0.8,0.4
								c-0.3,0.1-0.5,0.2-0.8,0.3c-0.3,0.1-0.5,0.2-0.8,0.2c-0.3,0.1-0.6,0.2-0.8,0.2l-0.8,0.1c-0.3,0.1-0.6,0-0.9,0.1l-0.9,0
								l-0.8,0c-0.3,0-0.6,0-0.9-0.1l-0.9-0.1c-0.3,0-0.6-0.1-0.8-0.2c-0.3-0.1-0.6-0.1-0.8-0.2c-0.3-0.1-0.5-0.2-0.8-0.3
								c-0.2-0.1-0.5-0.2-0.7-0.4c-0.2-0.1-0.4-0.2-0.6-0.4l-3-40.3l-1.6-20.2l-1.6-20.2l18.2,0.1l18.3,0.1l36.1,0.1L193.2,187.1z"
								/>
							<path fill="#591D0B" d="M135.1,175c0,0.1,0,0.2-0.1,0.4c0,0.2-0.1,0.4-0.1,0.7c-0.1,0.3-0.1,0.6-0.2,0.9
								c-0.1,0.3-0.2,0.7-0.4,1c-0.1,0.4-0.3,0.7-0.5,1.1c-0.2,0.4-0.4,0.8-0.7,1.2c-0.1,0.2-0.2,0.4-0.4,0.6l-0.4,0.5
								c-0.3,0.4-0.6,0.7-1,1c-0.2,0.2-0.3,0.3-0.5,0.5c-0.2,0.1-0.4,0.3-0.5,0.4c-0.3,0.3-0.7,0.5-1.1,0.7c-0.3,0.2-0.7,0.4-1,0.6
								c-0.3,0.2-0.6,0.3-0.9,0.4c-0.3,0.1-0.5,0.2-0.7,0.3c-0.4,0.2-0.6,0.2-0.6,0.2s0.2-0.1,0.6-0.2c0.2-0.1,0.4-0.1,0.7-0.2
								c0.3-0.1,0.6-0.2,0.9-0.4c0.3-0.2,0.7-0.3,1.1-0.5c0.4-0.2,0.8-0.4,1.1-0.7c0.2-0.1,0.4-0.3,0.6-0.4c0.2-0.1,0.4-0.3,0.6-0.4
								c0.3-0.3,0.7-0.6,1-1l0.5-0.5c0.2-0.2,0.3-0.4,0.4-0.6c0.3-0.4,0.5-0.8,0.8-1.2c0.2-0.4,0.4-0.8,0.6-1.2
								c0.2-0.4,0.3-0.7,0.4-1.1c0.1-0.3,0.2-0.7,0.3-0.9c0.1-0.3,0.1-0.5,0.2-0.7c0-0.2,0.1-0.4,0.1-0.5l-0.8-0.2
								C135.1,174.8,135.1,174.9,135.1,175z"/>
							<path fill="#591D0B" d="M191.4,185.1c-0.3-0.1-0.6-0.3-0.9-0.4c-0.3-0.2-0.7-0.3-1-0.6c-0.3-0.2-0.7-0.4-1.1-0.7
								c-0.2-0.1-0.3-0.3-0.5-0.4c-0.2-0.1-0.4-0.3-0.5-0.5c-0.3-0.3-0.7-0.6-1-1L186,181c-0.1-0.2-0.3-0.4-0.4-0.6
								c-0.3-0.4-0.5-0.8-0.7-1.2c-0.2-0.4-0.4-0.8-0.5-1.1c-0.1-0.4-0.3-0.7-0.4-1c-0.1-0.3-0.2-0.6-0.2-0.9
								c-0.1-0.3-0.1-0.5-0.1-0.7c0-0.2,0-0.3-0.1-0.4c0-0.1,0-0.2,0-0.2l-0.8,0.2c0,0.1,0,0.3,0.1,0.5c0,0.2,0.1,0.5,0.2,0.7
								c0.1,0.3,0.2,0.6,0.3,0.9c0.1,0.3,0.3,0.7,0.4,1.1c0.2,0.4,0.4,0.8,0.6,1.2c0.2,0.4,0.5,0.8,0.8,1.2c0.1,0.2,0.3,0.4,0.4,0.6
								l0.5,0.5c0.3,0.4,0.7,0.7,1,1c0.2,0.2,0.4,0.3,0.6,0.4c0.2,0.1,0.4,0.3,0.6,0.4c0.4,0.3,0.8,0.5,1.1,0.7
								c0.3,0.2,0.7,0.4,1.1,0.5C190.8,184.9,191,185.1,191.4,185.1c0.3,0.2,0.5,0.2,0.7,0.3c0.4,0.1,0.6,0.2,0.6,0.2
								s-0.2-0.1-0.6-0.2C191.9,185.3,191.6,185.2,191.4,185.1z"/>
						</g>
						<g>
							<g>
								<rect x="160.6" y="168.3" fill="#591D0B" width="0.6" height="21.4"/>
								<rect x="157" y="168.3" fill="#591D0B" width="0.6" height="21.4"/>
							</g>
						</g>
					</g>
				</g>
				<g>
					<g>
						<g>
							<path fill="#BEAC9F" d="M126.8,243.1c0-1.5,2-1.1,4.1-1.1c3.1,0,9.3,0.3,10.8-0.1c1.5-0.4,0.1,2.1,0.1,3.9
								c0,1.6,0.1,2.9,0.1,4c0,0.9-9.8-0.9-13.8,0.8c-1.6,0.7-1.4-1.2-1.3-2.7C126.9,246.3,126.8,245.2,126.8,243.1z"/>
							<path fill="#90837B" d="M130.8,249.6c-1.6,0.7-1.4-1.2-1.3-2.7c0.1-1.8,0-2.8,0-4.8c-1.5,0-2.7,0-2.7,1.1
								c0,2.1,0.1,3.1,0,4.9c-0.1,1.5-0.3,3.3,1.3,2.7c4-1.7,13.8,0.1,13.8-0.8c0-0.3,0-0.7,0-1
								C138.7,248.9,133.5,248.5,130.8,249.6z"/>
							<path fill="#231F20" d="M127.5,251.1c-0.3,0-0.5-0.1-0.6-0.3c-0.5-0.5-0.4-1.6-0.3-2.7l0-0.1c0.1-1.1,0.1-2,0-3
								c0-0.6,0-1.2,0-2c0-1.3,1.5-1.3,2.2-1.3c0.3,0,0.6,0,1,0c0.4,0,0.8,0,1.1,0c0.9,0,2.1,0,3.3,0.1c1.4,0,2.9,0.1,4.1,0.1
								c1.7,0,2.8-0.1,3.3-0.2c0.5-0.1,0.7,0,0.8,0.2c0.3,0.4,0.1,1.1-0.1,2c-0.2,0.6-0.3,1.4-0.3,2c0,0.9,0,1.7,0.1,2.4
								c0,0.6,0.1,1.2,0.1,1.7c0,0.4-0.7,0.5-1.5,0.5c-0.7,0-1.5,0-2.5-0.1c-1.3-0.1-2.7-0.1-4.2-0.1c-2.7,0-4.6,0.3-5.8,0.8
								C128,251.1,127.7,251.1,127.5,251.1z M128.8,242.3c-1.3,0-1.8,0.2-1.8,0.9c0,0.8,0,1.4,0,2c0,1,0.1,1.8,0,3l0,0.1
								c-0.1,0.9-0.1,2,0.2,2.4c0.2,0.2,0.4,0.2,0.8,0c1.3-0.5,3.2-0.8,5.9-0.8c1.5,0,2.9,0.1,4.2,0.1c1,0,1.8,0.1,2.5,0.1
								c0.7,0,1-0.1,1-0.1c0-0.5,0-1-0.1-1.6c0-0.7-0.1-1.5-0.1-2.4c0-0.7,0.2-1.4,0.3-2.1c0.2-0.6,0.3-1.4,0.2-1.6
								c0,0-0.1-0.1-0.3,0c-0.5,0.1-1.6,0.2-3.4,0.2c-1.3,0-2.8,0-4.2-0.1c-1.2,0-2.4-0.1-3.3-0.1c-0.4,0-0.8,0-1.2,0
								C129.4,242.3,129.1,242.3,128.8,242.3z"/>
						</g>
						<g>
							<path fill="#A3B2CD" d="M129.3,245c0,0,1.7,0.7,6.6,0"/>
							<path fill="#231F20" d="M129.3,245c0,0,0.1,0,0.3,0c0.1,0,0.2,0,0.3,0c0.1,0,0.3,0,0.4,0c0.2,0,0.3,0,0.5,0
								c0.2,0,0.4,0,0.6,0c0.2,0,0.4,0,0.6,0c0.2,0,0.4,0,0.6,0c0.4,0,0.8,0,1.2,0c0.2,0,0.4,0,0.6,0c0.2,0,0.3,0,0.5,0
								c0.6,0,1,0,1,0s-0.4,0.1-1,0.2c-0.3,0.1-0.7,0.1-1.1,0.2c-0.4,0-0.8,0.1-1.2,0.1c-0.2,0-0.4,0-0.6,0c-0.2,0-0.4,0-0.6,0
								c-0.4,0-0.8-0.1-1.1-0.2c-0.2,0-0.3-0.1-0.4-0.1c-0.1,0-0.2-0.1-0.3-0.1C129.4,245.1,129.3,245,129.3,245z"/>
						</g>
						<g>
							<path fill="#A3B2CD" d="M130,247.8c0,0,6.2-1.2,10.1-1.3"/>
							<path fill="#231F20" d="M130,247.8c0,0,0.6-0.2,1.5-0.4c0.5-0.1,1-0.2,1.6-0.3c0.6-0.1,1.2-0.2,1.9-0.3
								c0.6-0.1,1.3-0.2,1.9-0.2c0.6,0,1.2,0,1.6-0.1c0.5,0,0.9,0,1.2,0c0.3,0,0.4,0,0.4,0s-0.2,0-0.4,0.1c-0.3,0-0.7,0.1-1.1,0.2
								c-0.5,0.1-1,0.1-1.6,0.2c-0.6,0.1-1.2,0.2-1.8,0.3c-0.3,0-0.6,0.1-0.9,0.1c-0.3,0-0.6,0.1-0.9,0.1c-0.6,0.1-1.1,0.1-1.6,0.2
								c-0.5,0-0.9,0.1-1.2,0.1C130.2,247.7,130,247.8,130,247.8z"/>
						</g>
					</g>
					<g>
						<g>
							<path fill="#BEAC9F" d="M190.1,243.9c0-1.5-2-1.1-4.1-1.1c-3.1,0-9.3,0.3-10.8-0.1c-1.5-0.4-0.1,2.1-0.1,3.9
								c0,1.6-0.1,2.9-0.1,4c0,0.9,9.8-0.9,13.8,0.8c1.6,0.7,1.4-1.2,1.3-2.7C190,247.1,190.1,246,190.1,243.9z"/>
							<path fill="#90837B" d="M177.7,249.5c0-1.1,0.1-2.4,0.1-4c0-0.8-0.3-1.7-0.4-2.4c-1,0-1.7-0.1-2.2-0.2
								c-1.5-0.4-0.1,2.1-0.1,3.9c0,1.6-0.1,2.9-0.1,4c0,0.9,9.8-0.9,13.8,0.8c1.2,0.5,1.4-0.5,1.4-1.7
								C185.7,248.9,177.7,250.3,177.7,249.5z"/>
							<path fill="#231F20" d="M188.7,251.7c-1.2-0.5-3.1-0.8-5.8-0.8c-1.5,0-2.9,0.1-4.2,0.1c-1,0-1.8,0.1-2.5,0.1
								c-0.8,0-1.5,0-1.5-0.5c0-0.5,0-1.1,0.1-1.7c0-0.7,0.1-1.5,0.1-2.4c0-0.6-0.2-1.3-0.3-2c-0.2-0.9-0.4-1.6-0.1-2
								c0.1-0.1,0.4-0.3,0.8-0.2c0.5,0.1,1.6,0.2,3.3,0.2c1.3,0,2.7,0,4.1-0.1c1.2,0,2.4-0.1,3.3-0.1c0.4,0,0.8,0,1.1,0
								c0.3,0,0.7,0,1,0c0.8,0,2.2,0,2.2,1.3c0,0.8,0,1.4,0,2c0,1-0.1,1.8,0,3l0,0.1c0.1,1.1,0.2,2.2-0.3,2.7
								c-0.2,0.2-0.4,0.3-0.6,0.3C189.2,251.9,189,251.8,188.7,251.7z M187.2,243.1c-0.4,0-0.8,0-1.2,0c-0.9,0-2.1,0-3.3,0.1
								c-1.4,0-2.9,0.1-4.2,0.1c-1.8,0-2.9-0.1-3.4-0.2c-0.2-0.1-0.3,0-0.3,0c-0.2,0.2,0,1,0.2,1.6c0.2,0.7,0.3,1.4,0.3,2.1
								c0,0.9,0,1.7-0.1,2.4c0,0.6-0.1,1.1-0.1,1.6c0.1,0,0.3,0.1,1,0.1c0.6,0,1.5,0,2.5-0.1c1.3-0.1,2.8-0.1,4.2-0.1
								c2.7,0,4.7,0.3,5.9,0.8c0.4,0.2,0.6,0.2,0.8,0c0.4-0.4,0.3-1.5,0.2-2.4l0-0.1c-0.1-1.2-0.1-2,0-3c0-0.6,0-1.2,0-2
								c0-0.7-0.4-0.9-1.8-0.9C187.8,243,187.5,243.1,187.2,243.1z"/>
						</g>
						<g>
							<path fill="#A3B2CD" d="M187.6,245.8c0,0-1.7,0.7-6.6,0"/>
							<path fill="#231F20" d="M187.6,245.8c0,0-0.1,0-0.3,0c-0.1,0-0.2,0-0.3,0c-0.1,0-0.3,0-0.4,0c-0.2,0-0.3,0-0.5,0
								c-0.2,0-0.4,0-0.6,0c-0.2,0-0.4,0-0.6,0c-0.2,0-0.4,0-0.6,0c-0.4,0-0.8,0-1.2,0c-0.2,0-0.4,0-0.6,0c-0.2,0-0.3,0-0.5,0
								c-0.6,0-1,0-1,0s0.4,0.1,1,0.2c0.3,0.1,0.7,0.1,1.1,0.2c0.4,0,0.8,0.1,1.2,0.1c0.2,0,0.4,0,0.6,0c0.2,0,0.4,0,0.6,0
								c0.4,0,0.8-0.1,1.1-0.2c0.2,0,0.3-0.1,0.4-0.1c0.1,0,0.2-0.1,0.3-0.1C187.5,245.9,187.6,245.8,187.6,245.8z"/>
						</g>
						<g>
							<path fill="#A3B2CD" d="M186.9,248.5c0,0-6.2-1.2-10.1-1.3"/>
							<path fill="#231F20" d="M186.9,248.5c0,0-0.6-0.2-1.5-0.4c-0.5-0.1-1-0.2-1.6-0.3c-0.6-0.1-1.2-0.2-1.9-0.3
								c-0.6-0.1-1.3-0.2-1.9-0.2c-0.6,0-1.2,0-1.6-0.1c-0.5,0-0.9,0-1.2,0c-0.3,0-0.4,0-0.4,0s0.2,0,0.4,0.1c0.3,0,0.7,0.1,1.1,0.2
								c0.5,0.1,1,0.1,1.6,0.2c0.6,0.1,1.2,0.2,1.8,0.3c0.3,0,0.6,0.1,0.9,0.1c0.3,0,0.6,0.1,0.9,0.1c0.6,0.1,1.1,0.1,1.6,0.2
								c0.5,0,0.9,0.1,1.2,0.1C186.8,248.5,186.9,248.5,186.9,248.5z"/>
						</g>
					</g>
				</g>
			</g>
		</g>
		<g>
			<polygon fill="#66B29C" points="176.8,127.7 158.8,147.3 140.5,127.7 122.3,127.7 122.3,166.9 195.3,166.9 195.3,127.7 			"/>
			<polygon fill="#9CAF9D" points="195.3,141.1 192.5,141 192.5,165.1 129.1,165.1 129.1,127.7 122.2,127.7 122.2,166.9 
				195.2,166.9 195.2,166.9 195.3,166.9 			"/>
			<g>
				<g>
					<g>
						<g>
							<path fill="#2C5E52" d="M99,146c0,0,2.1,6.6,16.2,5.6C108.4,143,99,146,99,146z"/>
						</g>
						<path fill="#EACFAB" d="M130.7,168.4c0,0-3.1,4.1-4.6,4c-9-0.1-15.1-6.8-15.1-16c0-9.3,6.2-14.8,15.3-16.2l0-9h0
							c-15.8,0-25.2,11.3-25.2,25.1c-1.9,0-3.5,1.4-3.5,3.1c0,1.7,1.6,3.1,3.5,3.1c0.3,0,0.5,0,0.8-0.1c2.7,10.5,12.3,17.6,24.4,19
							l2.8,2.5c0,0,5.3-2.4,6-9.3l5.5,1.4v-3.6C140.6,172.6,134.9,172.2,130.7,168.4z"/>
						<path fill="#E8DAC4" d="M112.6,148.9c0,0-3.5-3.5-9.4-3.5l-1,2.9c0,0,4.5-0.7,9.2,3.8L112.6,148.9z"/>
						<path fill="#E8DAC4" d="M129.1,178c-12.8-1.5-23.7-5.7-26.6-16.9c-1.1,0.8-5.1-0.9-4.5-3.1c-0.3,0.5-0.5,1-0.5,1.5
							c0,1.7,1.6,3.1,3.5,3.1c0.3,0,0.5,0,0.8-0.1c2.7,10.5,12.3,17.6,24.4,19l2.8,2.5c0,0,1.9-0.9,3.6-3
							C132.6,181.2,129.1,178,129.1,178z"/>
						<polygon fill="#E8DAC4" points="135.1,174.9 135.1,173.9 140.6,174.7 140.6,176.3 						"/>
						<path fill="#66B29C" d="M126.2,131.3c-4.9-2.4-22.4,1.9-27.2,14.6c0,0,9.4-3,16.2,5.6c0,0,2.2-10.3,11-10.6
							C126.2,141,131.2,133.8,126.2,131.3z"/>
					</g>
					<g>
						<g>
							<g>
								<path fill="#9CAF9D" d="M113.7,146.4l-4.1,0.6c1.9,0.9,3.8,2.4,5.6,4.6c0,0,2.2-10.3,11-10.6c0,0,2-2.8,2.2-5.5
									C118.5,135.6,113.7,146.4,113.7,146.4z"/>
							</g>
						</g>
					</g>
				</g>
				<g>
					<path fill="#704615" d="M107.1,164.6c0,0-0.1,0-0.3,0.1c-0.2,0.1-0.4,0.2-0.7,0.3c-0.1,0.1-0.3,0.1-0.4,0.2
						c-0.2,0.1-0.3,0.2-0.5,0.3c-0.1,0.1-0.3,0.2-0.5,0.3l-0.2,0.2l-0.2,0.2c-0.1,0.1-0.3,0.3-0.4,0.4c-0.1,0.1-0.2,0.3-0.3,0.5
						c-0.1,0.1-0.2,0.3-0.3,0.5c-0.1,0.1-0.1,0.3-0.2,0.4c-0.1,0.1-0.1,0.3-0.2,0.4c0,0.1-0.1,0.2-0.1,0.3c-0.1,0.2-0.1,0.3-0.1,0.3
						s0-0.1,0-0.3c0-0.1,0-0.2,0.1-0.3c0-0.1,0.1-0.3,0.1-0.4c0.1-0.1,0.1-0.3,0.2-0.5c0.1-0.2,0.1-0.3,0.3-0.5
						c0.1-0.2,0.2-0.3,0.3-0.5c0.1-0.2,0.3-0.3,0.4-0.5c0.1-0.1,0.3-0.3,0.5-0.4c0.2-0.1,0.3-0.2,0.5-0.3c0.3-0.2,0.7-0.3,1-0.4
						c0.3-0.1,0.6-0.2,0.7-0.2C107,164.6,107.1,164.6,107.1,164.6z"/>
					<path fill="#704615" d="M108.2,166.2c0,0-0.1,0-0.3,0.1c-0.2,0.1-0.4,0.2-0.7,0.3c-0.1,0.1-0.3,0.1-0.4,0.2
						c-0.2,0.1-0.3,0.2-0.5,0.3c-0.1,0.1-0.3,0.2-0.5,0.3l-0.2,0.2l-0.2,0.2c-0.1,0.1-0.3,0.3-0.4,0.4c-0.1,0.1-0.2,0.3-0.3,0.5
						c-0.1,0.1-0.2,0.3-0.3,0.4c-0.1,0.1-0.2,0.3-0.2,0.4c-0.1,0.1-0.1,0.3-0.2,0.4c0,0.1-0.1,0.2-0.1,0.3c-0.1,0.2-0.1,0.3-0.1,0.3
						s0-0.1,0-0.3c0-0.1,0-0.2,0.1-0.3c0-0.1,0.1-0.3,0.1-0.4c0-0.1,0.1-0.3,0.2-0.5c0.1-0.2,0.1-0.3,0.2-0.5
						c0.1-0.2,0.2-0.3,0.3-0.5c0.1-0.2,0.3-0.3,0.4-0.5c0.1-0.1,0.3-0.3,0.5-0.4c0.2-0.1,0.3-0.2,0.5-0.3c0.3-0.2,0.7-0.3,1-0.4
						c0.3-0.1,0.6-0.2,0.7-0.2C108.1,166.2,108.2,166.2,108.2,166.2z"/>
					<path fill="#704615" d="M109.6,167.8c0,0-0.1,0-0.3,0.1c-0.2,0.1-0.4,0.2-0.7,0.3c-0.1,0.1-0.3,0.1-0.4,0.2
						c-0.2,0.1-0.3,0.2-0.5,0.3c-0.1,0.1-0.3,0.2-0.5,0.3l-0.2,0.2l-0.2,0.2c-0.1,0.1-0.3,0.3-0.4,0.4c-0.1,0.1-0.2,0.3-0.3,0.5
						c-0.1,0.1-0.2,0.3-0.3,0.4c-0.1,0.1-0.2,0.3-0.2,0.4c-0.1,0.1-0.1,0.3-0.2,0.4c0,0.1-0.1,0.2-0.1,0.3c-0.1,0.2-0.1,0.3-0.1,0.3
						s0-0.1,0-0.3c0-0.1,0-0.2,0.1-0.3c0-0.1,0.1-0.3,0.1-0.4c0-0.1,0.1-0.3,0.2-0.5c0.1-0.2,0.1-0.3,0.2-0.5
						c0.1-0.2,0.2-0.3,0.3-0.5c0.1-0.2,0.3-0.3,0.4-0.5c0.1-0.1,0.3-0.3,0.5-0.4c0.2-0.1,0.3-0.2,0.5-0.3c0.3-0.2,0.7-0.3,1-0.4
						c0.3-0.1,0.6-0.2,0.7-0.2C109.5,167.8,109.6,167.8,109.6,167.8z"/>
				</g>
			</g>
			<g>
				<g>
					<g>
						<g>
							<path fill="#2C5E52" d="M219.7,146c0,0-2.1,6.6-16.2,5.6C210.4,143,219.7,146,219.7,146z"/>
						</g>
						<path fill="#EACFAB" d="M188,168.4c0,0,3.1,4.1,4.6,4c9-0.1,15.1-6.8,15.1-16c0-9.3-6.2-14.8-15.3-16.2l0-9c0,0,0,0,0,0
							c15.8,0,25.2,11.3,25.2,25.1c1.9,0,3.5,1.4,3.5,3.1c0,1.7-1.6,3.1-3.5,3.1c-0.3,0-0.5,0-0.8-0.1c-2.7,10.5-12.3,17.6-24.4,19
							l-2.8,2.5c0,0-5.3-2.4-6-9.3l-5.5,1.4v-3.6C178.1,172.6,183.8,172.2,188,168.4z"/>
						<path fill="#E8DAC4" d="M206.1,148.9c0,0,3.5-3.5,9.4-3.5l1.1,2.9c0,0-4.5-0.6-9.2,3.8L206.1,148.9z"/>
						<path fill="#E8DAC4" d="M189.6,178c12.8-1.5,23.7-5.7,26.6-16.9c1.1,0.8,5.1-0.9,4.5-3.1c0.3,0.4,0.5,1,0.5,1.5
							c0,1.7-1.6,3.1-3.5,3.1c-0.3,0-0.5,0-0.8-0.1c-2.7,10.5-12.3,17.6-24.4,19l-2.8,2.5c0,0-1.9-0.9-3.6-3
							C186.2,181.2,189.6,178,189.6,178z"/>
						<polygon fill="#E8DAC4" points="183.6,174.9 183.6,173.9 178.1,174.7 178.1,176.3 						"/>
						<path fill="#66B29C" d="M192.5,131.3c4.9-2.4,22.4,1.9,27.2,14.6c0,0-9.4-3-16.2,5.6c0,0-2.2-10.3-11-10.6
							C192.5,141,187.5,133.8,192.5,131.3z"/>
					</g>
					<g>
						<g>
							<g>
								<path fill="#9CAF9D" d="M205,146.4l4.1,0.6c-1.9,0.9-3.8,2.4-5.6,4.6c0,0-2.2-10.3-11-10.6c0,0-2-2.8-2.2-5.5
									C200.3,135.6,205,146.4,205,146.4z"/>
							</g>
						</g>
					</g>
				</g>
				<g>
					<path fill="#704615" d="M211.6,164.6c0,0,0.1,0,0.3,0.1c0.2,0.1,0.4,0.2,0.7,0.3c0.1,0.1,0.3,0.1,0.4,0.2
						c0.2,0.1,0.3,0.2,0.5,0.3c0.2,0.1,0.3,0.2,0.5,0.3l0.2,0.2l0.2,0.2c0.1,0.1,0.3,0.3,0.4,0.4c0.1,0.1,0.2,0.3,0.3,0.5
						c0.1,0.1,0.2,0.3,0.3,0.4c0.1,0.1,0.1,0.3,0.2,0.4c0.1,0.1,0.1,0.3,0.2,0.4c0,0.1,0.1,0.2,0.1,0.3c0.1,0.2,0.1,0.3,0.1,0.3
						s0-0.1,0-0.3c0-0.1,0-0.2-0.1-0.3c0-0.1-0.1-0.3-0.1-0.4c0-0.1-0.1-0.3-0.2-0.5c-0.1-0.2-0.1-0.3-0.2-0.5
						c-0.1-0.2-0.2-0.3-0.3-0.5c-0.1-0.2-0.3-0.3-0.4-0.5c-0.1-0.1-0.3-0.3-0.5-0.4c-0.2-0.1-0.3-0.2-0.5-0.3
						c-0.3-0.2-0.7-0.3-1-0.4c-0.3-0.1-0.6-0.2-0.7-0.2C211.7,164.6,211.6,164.6,211.6,164.6z"/>
					<path fill="#704615" d="M210.5,166.2c0,0,0.1,0,0.3,0.1c0.2,0.1,0.4,0.2,0.7,0.3c0.1,0.1,0.3,0.1,0.4,0.2
						c0.2,0.1,0.3,0.2,0.5,0.3c0.1,0.1,0.3,0.2,0.5,0.3l0.2,0.2l0.2,0.2c0.1,0.1,0.3,0.3,0.4,0.4c0.1,0.1,0.2,0.3,0.3,0.5
						c0.1,0.1,0.2,0.3,0.3,0.4c0.1,0.1,0.1,0.3,0.2,0.4c0.1,0.1,0.1,0.3,0.2,0.4c0,0.1,0.1,0.2,0.1,0.3c0.1,0.2,0.1,0.3,0.1,0.3
						s0-0.1,0-0.3c0-0.1,0-0.2-0.1-0.3c0-0.1-0.1-0.3-0.1-0.4c0-0.1-0.1-0.3-0.2-0.5c-0.1-0.2-0.1-0.3-0.2-0.5
						c-0.1-0.2-0.2-0.3-0.3-0.5c-0.1-0.2-0.3-0.3-0.4-0.5c-0.1-0.1-0.3-0.3-0.5-0.4c-0.2-0.1-0.3-0.2-0.5-0.3
						c-0.3-0.2-0.7-0.3-1-0.4c-0.3-0.1-0.6-0.2-0.7-0.2C210.6,166.2,210.5,166.2,210.5,166.2z"/>
					<path fill="#704615" d="M209.1,167.8c0,0,0.1,0,0.3,0.1c0.2,0.1,0.4,0.2,0.7,0.3c0.1,0.1,0.3,0.1,0.4,0.2
						c0.2,0.1,0.3,0.2,0.5,0.3c0.1,0.1,0.3,0.2,0.5,0.3l0.2,0.2l0.2,0.2c0.1,0.1,0.3,0.3,0.4,0.4c0.1,0.1,0.2,0.3,0.3,0.5
						c0.1,0.1,0.2,0.3,0.3,0.4c0.1,0.1,0.1,0.3,0.2,0.4c0.1,0.1,0.1,0.3,0.2,0.4c0,0.1,0.1,0.2,0.1,0.3c0.1,0.2,0.1,0.3,0.1,0.3
						s0-0.1,0-0.3c0-0.1,0-0.2-0.1-0.3c0-0.1-0.1-0.3-0.1-0.4c0-0.1-0.1-0.3-0.2-0.5c-0.1-0.2-0.1-0.3-0.2-0.5
						c-0.1-0.2-0.2-0.3-0.3-0.5c-0.1-0.2-0.3-0.3-0.4-0.5c-0.1-0.1-0.3-0.3-0.5-0.4c-0.2-0.1-0.3-0.2-0.5-0.3
						c-0.3-0.2-0.7-0.3-1-0.4c-0.3-0.1-0.6-0.2-0.7-0.2C209.2,167.8,209.1,167.8,209.1,167.8z"/>
				</g>
			</g>
			<path fill="#97C0AB" d="M216.8,140.9c-0.1-0.1-0.2-0.2-0.2-0.3h-4.5v-4.2c-0.1-0.1-0.2-0.1-0.3-0.2v4.5h-6.9v-5.1h6
				c-0.2-0.1-0.3-0.2-0.5-0.3h-5.6v-2.7c-0.1,0-0.2-0.1-0.3-0.1v2.8h-6.9v-4.4c-0.1,0-0.2,0-0.3,0v4.5h-6.9v-5.1h4.9v-0.3h-4.9v-2.1
				h-0.3v2.1h-6.9v-2.1h-0.3v2.1h-6.9v-1.1l-0.3,0.3v0.8h-0.7l-0.3,0.3h1v5.1H170l-0.3,0.3h5.9v5.1h-6.9v-4l-0.3,0.3v3.7H165
				l-0.3,0.3h3.6v5.1h-6.9v-1.5l-0.3,0.3v1.2h-1.1l-0.3,0.3h1.4v5.1h-6.9v-5.1h3.6l-0.3-0.3h-3.3v-3.5l-0.3-0.3v3.9H147v-5.1h5.8
				l-0.3-0.3H147v-5.1h0.8l-0.3-0.3H147v-0.5l-0.3-0.3v0.9h-6.9v-5.1h3l-0.3-0.3h-2.7v-2.1h-0.3v2.1h-6.9v-2.1h-0.3v2.1h-6.9v-2.1
				H125v2.1h-2.7v0.3h2.7v5.1h-6.9v-4c-0.1,0-0.2,0-0.3,0.1v3.9h-6.9v-1.4c-0.1,0.1-0.2,0.1-0.3,0.2v1.3h-2.2
				c-0.2,0.1-0.3,0.2-0.5,0.3h2.7v5.1h-6.9v-1.6c-0.1,0.1-0.2,0.2-0.3,0.3v1.3h-1.2c-0.1,0.1-0.2,0.2-0.2,0.3h1.4v4.6
				c0.1,0,0.2,0,0.3,0v-4.6h6.9v5.1h-3.8c0.3,0.1,0.7,0.2,1,0.3h2.7v1.2c0.1,0.1,0.2,0.1,0.3,0.2v-1.4h6.7c0.1-0.1,0.1-0.2,0.2-0.3
				h-6.9v-5.1h6.9v5c0.1-0.1,0.2-0.3,0.3-0.4v-4.6h6.9v5.1h-2.7v0.3h2.7v5.1h-2.7v0.3h2.7v5.1h-2.7v0.3h2.7v5.1h-2.7v0.3h2.7v4.6
				h0.3v-4.6h6.9v4.6h0.3v-4.6h6.9v4.6h0.3v-4.6h6.9v4.6h0.3v-4.6h6.9v4.6h0.3v-4.6h6.9v4.6h0.3v-4.6h6.9v4.6h0.3v-4.6h6.9v4.6h0.3
				v-4.6h6.9v4.6h0.3v-4.6h6.9v4.6h0.3v-4.6h4.9v-0.3h-4.9V157h4.9v-0.3h-4.9v-5.1h4.9v-0.3h-4.9v-5.1h4.9v-0.3h-4.9v-5.1h6.9v1.5
				c0.1,0.1,0.2,0.1,0.3,0.2v-1.7h6.9v5.1H201c0.1,0.1,0.1,0.2,0.2,0.3h3.3v4.2c0.1-0.1,0.2-0.2,0.3-0.3v-3.8h6.1
				c0.4-0.1,0.8-0.2,1.1-0.3v-5H216.8z M117.8,140.6h-6.9v-5.1h6.9V140.6z M125,140.6h-6.9v-5.1h6.9V140.6z M132.2,162.1h-6.9V157
				h6.9V162.1z M132.2,156.7h-6.9v-5.1h6.9V156.7z M132.2,151.3h-6.9v-5.1h6.9V151.3z M132.2,145.9h-6.9v-5.1h6.9V145.9z
				 M132.2,140.6h-6.9v-5.1h6.9V140.6z M132.2,135.2h-6.9v-5.1h6.9V135.2z M139.5,162.1h-6.9V157h6.9V162.1z M139.5,156.7h-6.9v-5.1
				h6.9V156.7z M139.5,151.3h-6.9v-5.1h6.9V151.3z M139.5,145.9h-6.9v-5.1h6.9V145.9z M139.5,140.6h-6.9v-5.1h6.9V140.6z
				 M139.5,135.2h-6.9v-5.1h6.9V135.2z M146.7,162.1h-6.9V157h6.9V162.1z M146.7,156.7h-6.9v-5.1h6.9V156.7z M146.7,151.3h-6.9v-5.1
				h6.9V151.3z M146.7,145.9h-6.9v-5.1h6.9V145.9z M146.7,140.6h-6.9v-5.1h6.9V140.6z M153.9,162.1H147V157h6.9V162.1z M153.9,156.7
				H147v-5.1h6.9V156.7z M153.9,151.3H147v-5.1h6.9V151.3z M161.2,162.1h-6.9V157h6.9V162.1z M161.2,156.7h-6.9v-5.1h6.9V156.7z
				 M168.4,162.1h-6.9V157h6.9V162.1z M168.4,156.7h-6.9v-5.1h6.9V156.7z M168.4,151.3h-6.9v-5.1h6.9V151.3z M175.6,162.1h-6.9V157
				h6.9V162.1z M175.6,156.7h-6.9v-5.1h6.9V156.7z M175.6,151.3h-6.9v-5.1h6.9V151.3z M175.6,145.9h-6.9v-5.1h6.9V145.9z
				 M182.9,162.1h-6.9V157h6.9V162.1z M182.9,156.7h-6.9v-5.1h6.9V156.7z M182.9,151.3h-6.9v-5.1h6.9V151.3z M182.9,145.9h-6.9v-5.1
				h6.9V145.9z M182.9,140.6h-6.9v-5.1h6.9V140.6z M182.9,135.2h-6.9v-5.1h6.9V135.2z M190.1,162.1h-6.9V157h6.9V162.1z
				 M190.1,156.7h-6.9v-5.1h6.9V156.7z M190.1,151.3h-6.9v-5.1h6.9V151.3z M190.1,145.9h-6.9v-5.1h6.9V145.9z M190.1,140.6h-6.9
				v-5.1h6.9V140.6z M190.1,135.2h-6.9v-5.1h6.9V135.2z M197.3,140.6h-6.9v-5.1h6.9V140.6z M204.6,140.6h-6.9v-5.1h6.9V140.6z
				 M211.8,145.9h-6.9v-5.1h6.9V145.9z"/>
			<polygon fill="#9CAF9D" points="158.8,149.2 178.7,127.7 176.8,127.7 158.8,147.3 140.5,127.7 138.8,127.7 			"/>
			<g>
				<rect x="135.1" y="127.7" fill="#F3F6DE" width="4.5" height="39.3"/>
				<rect x="177.5" y="127.6" fill="#F3F6DE" width="4.5" height="39.4"/>
			</g>
		</g>
		<g>
			<polygon fill="#EACFAB" points="140.4,127.7 158.8,147.3 176.8,127.7 			"/>
			<g>
				<path fill="#704615" d="M156.3,138.6c0,0,0,0-0.1,0.1c0,0.1-0.1,0.2-0.2,0.3c0,0.1-0.1,0.1-0.2,0.2c-0.1,0.1-0.1,0.1-0.2,0.2
					c-0.1,0.1-0.2,0.1-0.3,0.2c-0.1,0-0.2,0.1-0.4,0.1c-0.1,0-0.3,0-0.4,0c-0.1,0-0.3,0-0.4-0.1c-0.1,0-0.1,0-0.2-0.1
					c-0.1,0-0.1-0.1-0.2-0.1c-0.1,0-0.1-0.1-0.2-0.2c-0.1-0.1-0.1-0.1-0.2-0.2c-0.2-0.3-0.3-0.6-0.3-1l0-0.3l0.1-0.3
					c0.1-0.1,0.1-0.1,0.1-0.2c0.1-0.1,0.1-0.2,0.2-0.2c0.3-0.2,0.7-0.3,1.1-0.2c0.1,0,0.2,0.1,0.3,0.1c0.1,0.1,0.1,0.1,0.2,0.1
					c0.2,0.1,0.2,0.3,0.3,0.5c0,0.2,0.1,0.4,0,0.5c0,0.1-0.1,0.1-0.1,0.2c0,0.1-0.1,0.1-0.1,0.2c-0.3,0.2-0.6,0.3-0.9,0.2
					c0,0-0.1,0-0.1,0l-0.1,0c-0.1,0-0.1-0.1-0.1-0.2c-0.1-0.1-0.1-0.2-0.1-0.3c0-0.1,0-0.2,0.1-0.3c0-0.1,0.1-0.1,0.2-0.2
					c0.1-0.1,0.3-0.1,0.3,0c0.1,0,0.1,0,0.1,0s0,0-0.1,0c-0.1,0-0.2,0-0.3,0.1c-0.1,0-0.1,0.1-0.1,0.2c0,0.1,0,0.1,0,0.2
					c0,0.1,0,0.2,0.1,0.2c0,0,0.1,0.1,0.1,0.1l0.1,0c0,0,0,0,0.1,0c0.2,0.1,0.4,0,0.6-0.2c0,0,0.1-0.1,0.1-0.2c0,0,0-0.1,0-0.2
					c0-0.1,0-0.2,0-0.3c0-0.1-0.1-0.2-0.2-0.3c-0.1-0.1-0.2-0.1-0.4-0.2c-0.3-0.1-0.5,0-0.8,0.2c-0.1,0-0.1,0.1-0.1,0.1
					c0,0.1-0.1,0.2-0.1,0.2l-0.1,0.2l0,0.2c0,0.3,0.1,0.5,0.2,0.7c0,0.1,0.1,0.1,0.1,0.1c0,0,0.1,0.1,0.1,0.1l0.2,0.1
					c0.1,0,0.1,0,0.2,0.1c0.1,0.1,0.2,0.1,0.4,0.1c0.1,0,0.2,0,0.4,0c0.1,0,0.2,0,0.3-0.1c0.1,0,0.2-0.1,0.3-0.1
					c0.1,0,0.2-0.1,0.2-0.1c0.1,0,0.1-0.1,0.2-0.1C156.1,138.9,156.2,138.8,156.3,138.6C156.3,138.7,156.3,138.6,156.3,138.6z"/>
				<path fill="#704615" d="M168,132.5C168,132.5,168,132.6,168,132.5c-0.1,0.1-0.2,0.2-0.3,0.3c-0.1,0.1-0.3,0.2-0.4,0.3
					c-0.1,0-0.2,0.1-0.3,0.1c-0.1,0-0.2,0-0.4,0c-0.1,0-0.3,0-0.4-0.1c-0.1,0-0.3-0.1-0.4-0.2c0,0-0.1,0-0.1-0.1l-0.1-0.1
					c-0.1,0-0.1-0.1-0.2-0.2c-0.1-0.1-0.2-0.3-0.2-0.4c-0.1-0.3-0.1-0.7,0.1-1c0-0.1,0.1-0.2,0.1-0.2c0.1-0.1,0.1-0.1,0.2-0.2
					c0.2-0.1,0.3-0.2,0.5-0.3c0.4-0.1,0.8,0,1.1,0.3c0.3,0.2,0.4,0.7,0.3,1c-0.1,0.2-0.2,0.3-0.3,0.4c-0.2,0.1-0.3,0.2-0.5,0.1
					c-0.3,0-0.6-0.2-0.7-0.5c0-0.3,0.1-0.5,0.3-0.6c0.2-0.1,0.4,0,0.5,0.1c0,0,0.1,0.1,0.1,0.2c0,0.1,0,0.1,0,0.1
					c0,0.1-0.1,0.1-0.1,0.1s0,0,0-0.1c0,0,0-0.1,0-0.1c0,0,0-0.1-0.1-0.1c-0.1-0.1-0.3-0.1-0.4-0.1c-0.1,0.1-0.2,0.3-0.2,0.4
					c0,0.2,0.2,0.3,0.5,0.3c0.1,0,0.2,0,0.3-0.1c0.1-0.1,0.2-0.2,0.2-0.3c0.1-0.2,0-0.5-0.2-0.6c-0.2-0.2-0.5-0.2-0.7-0.2
					c-0.1,0-0.2,0.1-0.3,0.1c0,0-0.1,0.1-0.1,0.1l-0.1,0.2c-0.1,0.2-0.1,0.5-0.1,0.7c0,0.1,0.1,0.2,0.2,0.3c0,0,0.1,0.1,0.1,0.1
					l0.1,0.1c0,0,0,0,0.1,0c0.1,0.1,0.2,0.1,0.3,0.2c0.1,0.1,0.2,0.1,0.3,0.1c0.1,0,0.2,0,0.3,0c0.1,0,0.2,0,0.3,0
					c0.2-0.1,0.3-0.1,0.4-0.2C167.8,132.7,167.9,132.7,168,132.5C168,132.6,168,132.5,168,132.5z"/>
				<path fill="#704615" d="M162.9,141c0,0-0.1,0-0.2,0c0,0-0.1,0-0.2,0c-0.1,0-0.1,0-0.2-0.1c-0.1,0-0.2-0.1-0.2-0.2
					c-0.1-0.1-0.1-0.2-0.2-0.3c0-0.1-0.1-0.2-0.1-0.3c0-0.1,0-0.1,0-0.2c0-0.1,0-0.1,0.1-0.2c0.1-0.1,0.1-0.2,0.3-0.3
					c0.1-0.1,0.2-0.1,0.4-0.2c0.1,0,0.1,0,0.2,0h0c0,0,0,0,0.1,0l0.1,0c0.1,0,0.2,0.1,0.3,0.2c0.1,0.1,0.2,0.3,0.2,0.4
					c0,0,0,0.1,0,0.1c0,0,0,0,0,0s0-0.1-0.1-0.1c0-0.1-0.1-0.2-0.2-0.2c-0.1,0-0.1,0-0.2,0h-0.1c0,0,0,0,0,0l0,0c0,0-0.1,0-0.1,0
					c-0.1,0-0.1,0.1-0.2,0.1c-0.1,0-0.1,0.1-0.1,0.2c0,0,0,0.1,0,0.1l0,0.1c0,0,0,0.1,0,0.1c0,0,0,0.1,0,0.1c0,0.1,0,0.1,0.1,0.2
					c0,0.1,0.1,0.1,0.1,0.2c0.1,0,0.1,0.1,0.2,0.1c0.1,0,0.1,0.1,0.1,0.1C162.8,141,162.9,141,162.9,141z"/>
				<path fill="#704615" d="M160.1,143.9C160.1,143.9,160.1,143.9,160.1,143.9c-0.1,0.1-0.1,0.2-0.2,0.3c-0.1,0.1-0.2,0.2-0.3,0.3
					c-0.1,0.1-0.3,0.2-0.5,0.2c-0.2,0-0.4,0.1-0.6,0c-0.1,0-0.2,0-0.3-0.1l-0.2-0.1c-0.1,0-0.1-0.1-0.2-0.1c-0.1,0-0.2-0.2-0.3-0.3
					c-0.1-0.1-0.2-0.2-0.2-0.4c-0.1-0.3-0.1-0.6,0-0.8c0-0.1,0.1-0.1,0.1-0.2l0-0.1c0-0.1,0-0.1,0.1-0.1c0.1-0.1,0.2-0.2,0.3-0.3
					c0.3-0.1,0.6-0.2,0.8-0.1c0.1,0,0.2,0.1,0.4,0.2c0,0,0.1,0.1,0.1,0.1c0,0.1,0.1,0.1,0.1,0.2c0.1,0.2,0.2,0.5,0.1,0.7
					c-0.1,0.2-0.2,0.4-0.3,0.4c-0.1,0.1-0.3,0.1-0.4,0.1c-0.1,0-0.2,0-0.3-0.1c0,0-0.1,0-0.1,0c0,0,0.1,0.1,0.3,0
					c0.1,0,0.2-0.1,0.3-0.1c0.1-0.1,0.2-0.2,0.2-0.4c0-0.2,0-0.3-0.1-0.4c0,0-0.1-0.1-0.1-0.1c0,0-0.1-0.1-0.1-0.1
					c-0.1,0-0.2-0.1-0.3-0.1c-0.2,0-0.4,0-0.6,0.1c0,0-0.1,0.1-0.1,0.1c0,0-0.1,0.1-0.1,0.1l0,0.1l0,0.1c0,0,0,0.1-0.1,0.1
					c-0.1,0.2-0.1,0.4,0,0.6c0,0.1,0.1,0.2,0.1,0.3c0,0,0.1,0.1,0.1,0.1c0,0,0.1,0.1,0.1,0.1c0,0,0.1,0.1,0.1,0.1l0.1,0.1
					c0.1,0.1,0.2,0.1,0.3,0.1c0.2,0,0.4,0,0.5,0c0.2,0,0.3-0.1,0.5-0.1c0.1-0.1,0.2-0.1,0.3-0.2C159.9,144.1,160,144,160.1,143.9
					C160.1,143.9,160.1,143.9,160.1,143.9z"/>
				<path fill="#704615" d="M158.6,136.1C158.6,136.1,158.6,136.2,158.6,136.1c0,0.1-0.1,0.1-0.1,0.2c-0.1,0.1-0.1,0.1-0.2,0.2
					c-0.1,0.1-0.2,0.1-0.3,0.2c-0.1,0-0.3,0.1-0.5,0c-0.2,0-0.3-0.1-0.5-0.2c-0.1,0-0.2-0.1-0.2-0.2c-0.1-0.1-0.1-0.2-0.1-0.3
					c-0.1-0.2-0.1-0.4,0-0.6c0-0.1,0.1-0.2,0.1-0.3c0-0.1,0.2-0.2,0.2-0.2c0.2-0.1,0.4-0.1,0.6-0.1c0.1,0,0.2,0.1,0.3,0.1
					c0,0,0.1,0,0.1,0.1c0,0,0.1,0.1,0.1,0.1c0.1,0.2,0.1,0.3,0.1,0.5c0,0.2-0.1,0.2-0.2,0.3c-0.1,0.1-0.2,0.1-0.3,0.1
					c-0.1,0-0.1,0-0.2-0.1c0,0-0.1,0-0.1,0s0,0,0.1,0c0,0,0.1,0,0.2,0c0.1,0,0.1,0,0.2-0.1c0.1,0,0.1-0.2,0.1-0.2
					c0-0.1,0-0.2-0.1-0.3c0,0,0,0,0,0c0,0-0.1,0-0.1-0.1c0,0-0.1,0-0.2,0c-0.1,0-0.2,0-0.3,0.1c0,0,0,0-0.1,0c0,0,0,0-0.1,0.1
					c0,0-0.1,0.1-0.1,0.2c0,0.1,0,0.2,0,0.4c0,0.1,0,0.1,0.1,0.2c0,0,0,0.1,0.1,0.1c0.1,0.1,0.2,0.1,0.3,0.2c0.1,0,0.2,0,0.4,0
					c0.1,0,0.2,0,0.3-0.1c0.1,0,0.2-0.1,0.2-0.1C158.5,136.2,158.6,136.1,158.6,136.1z"/>
				<path fill="#704615" d="M163.2,131.5C163.2,131.5,163.2,131.5,163.2,131.5c0,0.1-0.1,0.1-0.1,0.2c-0.1,0.1-0.1,0.1-0.2,0.2
					c-0.1,0.1-0.2,0.1-0.3,0.2c-0.1,0-0.3,0.1-0.5,0c-0.2,0-0.3-0.1-0.5-0.2c-0.1,0-0.2-0.1-0.2-0.2c-0.1-0.1-0.1-0.2-0.1-0.3
					c-0.1-0.2-0.1-0.4,0-0.6c0-0.1,0.1-0.2,0.1-0.3c0-0.1,0.2-0.2,0.2-0.2c0.2-0.1,0.4-0.1,0.6-0.1c0.1,0,0.2,0.1,0.3,0.1
					c0,0,0.1,0,0.1,0.1c0,0,0.1,0.1,0.1,0.1c0.1,0.2,0.1,0.3,0.1,0.5c0,0.2-0.1,0.3-0.2,0.3c-0.1,0.1-0.2,0.1-0.3,0.1
					c-0.1,0-0.1,0-0.2-0.1c0,0-0.1,0-0.1,0s0,0,0.1,0c0,0,0.1,0,0.2,0c0.1,0,0.1,0,0.2-0.1c0.1,0,0.1-0.2,0.1-0.2
					c0-0.1,0-0.2-0.1-0.3c0,0,0,0,0,0c0,0-0.1,0-0.1-0.1c0,0-0.1,0-0.2,0c-0.1,0-0.2,0-0.3,0.1c0,0,0,0-0.1,0c0,0,0,0-0.1,0.1
					c0,0-0.1,0.1-0.1,0.2c0,0.1,0,0.2,0,0.4c0,0.1,0,0.1,0.1,0.2c0,0,0,0.1,0.1,0.1c0.1,0.1,0.2,0.1,0.3,0.2c0.1,0,0.2,0,0.4,0
					c0.1,0,0.2,0,0.3-0.1c0.1,0,0.2-0.1,0.2-0.1C163.2,131.6,163.2,131.5,163.2,131.5z"/>
				<path fill="#704615" d="M166.6,136.6C166.6,136.6,166.6,136.6,166.6,136.6c0,0.1-0.1,0.1-0.1,0.2c-0.1,0.1-0.1,0.1-0.2,0.2
					c-0.1,0.1-0.2,0.1-0.3,0.2c-0.1,0-0.3,0.1-0.5,0c-0.2,0-0.3-0.1-0.5-0.2c-0.1,0-0.2-0.1-0.2-0.2c-0.1-0.1-0.1-0.2-0.1-0.3
					c-0.1-0.2-0.1-0.4,0-0.6c0-0.1,0.1-0.2,0.1-0.3c0-0.1,0.2-0.2,0.2-0.2c0.2-0.1,0.4-0.1,0.6-0.1c0.1,0,0.2,0.1,0.3,0.1
					c0,0,0.1,0,0.1,0.1c0,0,0.1,0.1,0.1,0.1c0.1,0.2,0.1,0.3,0.1,0.5c0,0.2-0.1,0.3-0.2,0.3c-0.1,0.1-0.2,0.1-0.3,0.1
					c-0.1,0-0.1,0-0.2-0.1c0,0-0.1,0-0.1,0s0,0,0.1,0c0,0,0.1,0,0.2,0c0.1,0,0.1,0,0.2-0.1c0,0,0.1-0.2,0.1-0.2c0-0.1,0-0.2-0.1-0.3
					c0,0,0,0,0,0c0,0-0.1,0-0.1-0.1c0,0-0.1,0-0.2,0c-0.1,0-0.2,0-0.3,0.1c0,0,0,0-0.1,0c0,0,0,0-0.1,0.1c0,0-0.1,0.1-0.1,0.2
					c0,0.1,0,0.2,0,0.4c0,0.1,0,0.1,0.1,0.2c0,0,0,0.1,0.1,0.1c0.1,0.1,0.2,0.1,0.3,0.2c0.1,0,0.2,0,0.4,0c0.1,0,0.2,0,0.3-0.1
					c0.1,0,0.2-0.1,0.2-0.1C166.6,136.7,166.6,136.6,166.6,136.6z"/>
				<path fill="#704615" d="M160,140.5C160,140.5,159.9,140.5,160,140.5c0,0.1-0.1,0.1-0.1,0.2c-0.1,0.1-0.1,0.1-0.2,0.2
					c-0.1,0.1-0.2,0.1-0.3,0.2c-0.1,0-0.3,0.1-0.5,0c-0.2,0-0.3-0.1-0.5-0.2c-0.1,0-0.2-0.1-0.2-0.2c-0.1-0.1-0.1-0.2-0.1-0.3
					c-0.1-0.2-0.1-0.4,0-0.6c0-0.1,0.1-0.2,0.1-0.3c0-0.1,0.2-0.2,0.2-0.2c0.2-0.1,0.4-0.1,0.6-0.1c0.1,0,0.2,0.1,0.3,0.1
					c0,0,0.1,0,0.1,0.1c0,0,0.1,0.1,0.1,0.1c0.1,0.2,0.1,0.3,0.1,0.5c0,0.2-0.1,0.3-0.2,0.3c-0.1,0.1-0.2,0.1-0.3,0.1
					c-0.1,0-0.1,0-0.2-0.1c0,0-0.1,0-0.1,0s0,0,0.1,0c0,0,0.1,0,0.2,0c0.1,0,0.1,0,0.2-0.1c0,0,0.1-0.2,0.1-0.2c0-0.1,0-0.2-0.1-0.3
					c0,0,0,0,0,0c0,0-0.1,0-0.1-0.1c0,0-0.1,0-0.2,0c-0.1,0-0.2,0-0.3,0.1c0,0,0,0-0.1,0c0,0,0,0-0.1,0.1c0,0-0.1,0.1-0.1,0.2
					c0,0.1,0,0.2,0,0.4c0,0.1,0,0.1,0.1,0.2c0,0,0,0.1,0.1,0.1c0.1,0.1,0.2,0.1,0.3,0.2c0.1,0,0.2,0,0.4,0c0.1,0,0.2,0,0.3-0.1
					c0.1,0,0.2-0.1,0.2-0.1C159.9,140.6,160,140.5,160,140.5z"/>
				<path fill="#704615" d="M158,133.4c0,0,0,0-0.1,0c-0.1,0-0.2,0-0.3-0.1c-0.1,0-0.2,0-0.2-0.1c-0.1,0-0.2-0.1-0.3-0.1
					c-0.1-0.1-0.2-0.1-0.3-0.2c-0.1-0.1-0.1-0.2-0.2-0.3c-0.1-0.1-0.1-0.2-0.2-0.4c0-0.1-0.1-0.3-0.1-0.4c0-0.1,0-0.2,0-0.2
					c0-0.1,0-0.1,0-0.2c0-0.1,0-0.2,0.1-0.2c0-0.1,0.1-0.2,0.1-0.2c0.2-0.3,0.5-0.5,0.8-0.6l0.3-0.1l0.3,0c0.1,0,0.2,0,0.3,0
					c0.1,0,0.2,0.1,0.3,0.1c0.3,0.2,0.6,0.5,0.6,0.9c0,0.1,0,0.2,0,0.3c0,0.1,0,0.1-0.1,0.3c-0.1,0.2-0.2,0.3-0.3,0.4
					c-0.2,0.1-0.3,0.2-0.5,0.2c-0.1,0-0.2,0-0.3,0c-0.1,0-0.1,0-0.2-0.1c-0.3-0.1-0.5-0.5-0.5-0.7c0,0,0-0.1,0-0.1l0-0.1
					c0-0.1,0.1-0.1,0.1-0.2c0.1-0.1,0.2-0.2,0.3-0.2c0.1,0,0.2,0,0.3,0c0.1,0,0.2,0.1,0.2,0.1c0.1,0.1,0.2,0.2,0.2,0.3
					c0,0.1,0,0.1,0,0.1s0,0,0-0.1c0-0.1-0.1-0.2-0.2-0.2c-0.1,0-0.1-0.1-0.2-0.1c-0.1,0-0.2,0-0.2,0.1c-0.1,0-0.1,0.1-0.2,0.2
					c0,0,0,0.1-0.1,0.1l0,0.1c0,0,0,0,0,0.1c0,0.2,0.2,0.4,0.3,0.5c0,0,0.1,0,0.2,0c0,0,0.1,0,0.2,0c0.1,0,0.2-0.1,0.3-0.1
					c0.1-0.1,0.2-0.2,0.2-0.3c0-0.1,0-0.2,0-0.4c0-0.3-0.2-0.5-0.4-0.6c-0.1,0-0.1,0-0.2-0.1c-0.1,0-0.2,0-0.2,0l-0.2,0l-0.2,0
					c-0.3,0.1-0.5,0.2-0.7,0.4c0,0.1-0.1,0.1-0.1,0.2c0,0.1-0.1,0.1-0.1,0.2c0,0.1,0,0.1-0.1,0.2c0,0.1,0,0.1,0,0.2
					c0,0.1,0,0.2,0,0.4c0,0.1,0.1,0.2,0.1,0.3c0.1,0.1,0.1,0.2,0.2,0.3c0.1,0.1,0.1,0.2,0.2,0.2c0.1,0.1,0.1,0.1,0.2,0.2
					c0.1,0,0.1,0.1,0.2,0.1c0.1,0.1,0.2,0.1,0.3,0.1C158,133.4,158,133.4,158,133.4z"/>
				<path fill="#704615" d="M161.7,137.3c0,0,0,0-0.1,0c-0.1,0-0.2,0-0.3-0.1c-0.1-0.1-0.3-0.2-0.4-0.3c-0.1-0.1-0.1-0.2-0.2-0.3
					c0-0.1-0.1-0.2-0.2-0.4c0-0.1-0.1-0.3-0.1-0.4c0-0.1,0-0.1,0-0.2c0-0.1,0-0.2,0-0.2c0,0,0-0.1,0-0.1l0-0.1
					c0-0.1,0.1-0.1,0.1-0.2c0.1-0.2,0.2-0.3,0.4-0.4c0.3-0.2,0.7-0.4,1.1-0.3c0.1,0,0.2,0,0.3,0.1c0.1,0,0.2,0.1,0.3,0.1
					c0.2,0.1,0.4,0.2,0.5,0.4c0.2,0.3,0.3,0.8,0.1,1.1c-0.1,0.4-0.6,0.6-1,0.6c-0.2,0-0.4-0.1-0.5-0.1c-0.2-0.1-0.3-0.3-0.3-0.4
					c-0.1-0.3,0-0.7,0.3-0.9c0.3-0.2,0.6-0.1,0.8,0.1c0.2,0.2,0.1,0.4,0,0.6c0,0.1-0.1,0.1-0.2,0.1c-0.1,0-0.1,0-0.2,0
					c-0.1,0-0.1,0-0.1,0s0,0,0.1,0c0,0,0.1,0,0.1,0c0,0,0.1-0.1,0.1-0.1c0.1-0.1,0.1-0.3-0.1-0.4c-0.1-0.1-0.4-0.1-0.5,0
					c-0.2,0.1-0.2,0.4-0.2,0.6c0,0.1,0.1,0.2,0.2,0.3c0.1,0.1,0.2,0.1,0.4,0.1c0.3,0,0.5-0.2,0.6-0.4c0.1-0.2,0.1-0.6-0.1-0.8
					c-0.1-0.1-0.2-0.2-0.3-0.3c-0.1,0-0.2-0.1-0.2-0.1l-0.2,0c-0.3,0-0.6,0-0.8,0.2c-0.1,0.1-0.2,0.2-0.3,0.3c0,0-0.1,0.1-0.1,0.2
					l-0.1,0.1c0,0,0,0.1,0,0.1c0,0.1,0,0.1-0.1,0.2c0,0.1,0,0.1,0,0.2c0,0.1,0,0.2,0,0.4c0,0.1,0.1,0.2,0.1,0.3
					c0,0.1,0.1,0.2,0.2,0.3c0.1,0.2,0.2,0.3,0.4,0.4c0.1,0.1,0.2,0.1,0.3,0.2C161.6,137.2,161.7,137.3,161.7,137.3z"/>
				<path fill="#704615" d="M150.3,133.3C150.3,133.3,150.2,133.3,150.3,133.3c-0.2,0-0.2-0.1-0.3-0.1c-0.1-0.1-0.2-0.1-0.4-0.3
					c-0.1-0.1-0.1-0.1-0.2-0.2c0-0.1-0.1-0.2-0.1-0.3c-0.1-0.2-0.1-0.4,0-0.7c0,0,0-0.1,0-0.1l0-0.1c0-0.1,0-0.1,0.1-0.2
					c0.1-0.1,0.2-0.2,0.3-0.3c0.2-0.2,0.5-0.3,0.9-0.2c0.1,0,0.2,0,0.2,0c0.1,0,0.1,0,0.2,0.1c0.2,0.1,0.3,0.2,0.4,0.3
					c0.2,0.3,0.2,0.6,0.1,0.9c-0.1,0.3-0.5,0.5-0.8,0.5c-0.2,0-0.3,0-0.4-0.1c-0.1-0.1-0.2-0.2-0.3-0.4c-0.1-0.3,0-0.6,0.3-0.7
					c0.1-0.1,0.2-0.1,0.3-0.1l0.1,0c0.1,0,0,0,0.1,0c0,0,0.1,0,0.1,0.1c0.1,0.2,0.1,0.3,0,0.4c0,0-0.1,0.1-0.1,0.1c0,0-0.1,0-0.1,0
					c-0.1,0-0.1,0-0.1,0s0,0,0.1,0c0,0,0.1,0,0.1,0c0,0,0.1,0,0.1-0.1l0,0l0,0c0,0,0,0,0,0v0l0,0c0,0,0-0.1,0-0.1
					c0-0.1,0-0.1-0.1-0.1c0,0-0.1,0-0.1-0.1c0,0-0.1,0,0,0l-0.1,0c-0.1,0-0.1,0-0.2,0.1c-0.1,0.1-0.2,0.3-0.1,0.4
					c0,0.1,0.1,0.1,0.2,0.2c0.1,0,0.2,0.1,0.3,0.1c0.2,0,0.4-0.1,0.4-0.3c0.1-0.2,0-0.4-0.1-0.5c0-0.1-0.1-0.1-0.2-0.2
					c0,0-0.1-0.1-0.2-0.1l-0.2,0c-0.2,0-0.4,0-0.6,0.1c-0.1,0.1-0.2,0.1-0.2,0.2c0,0-0.1,0.1-0.1,0.1l0,0.1c0,0,0,0,0,0.1
					c0,0.1-0.1,0.2-0.1,0.3c0,0.1,0,0.2,0,0.3c0,0.1,0.1,0.2,0.1,0.2c0,0.1,0.1,0.1,0.1,0.2c0.1,0.1,0.2,0.2,0.3,0.3
					C150,133.2,150.1,133.2,150.3,133.3C150.2,133.3,150.3,133.3,150.3,133.3z"/>
				<path fill="#704615" d="M153.7,134.9C153.7,134.9,153.6,134.9,153.7,134.9c-0.1,0-0.2,0-0.3,0c-0.1,0-0.2-0.1-0.3-0.1
					c-0.1-0.1-0.2-0.2-0.3-0.3c-0.1-0.1-0.2-0.3-0.2-0.4c0-0.2,0-0.4,0-0.5c0-0.1,0.1-0.2,0.1-0.3c0.1-0.1,0.1-0.2,0.2-0.2
					c0.2-0.1,0.4-0.2,0.6-0.2c0.1,0,0.2,0,0.3,0c0.1,0,0.2,0.1,0.3,0.2c0.2,0.1,0.3,0.4,0.3,0.6c0,0.1,0,0.2,0,0.3c0,0,0,0.1,0,0.1
					c0,0-0.1,0.1-0.1,0.1c-0.1,0.2-0.3,0.2-0.5,0.2c-0.2,0-0.3,0-0.4-0.1c-0.1-0.1-0.2-0.2-0.2-0.3c0-0.1,0-0.1,0-0.2
					c0,0,0-0.1,0-0.1c0,0,0,0.1,0.1,0.2c0,0.1,0.1,0.1,0.2,0.2c0.1,0,0.2,0,0.3,0c0.1,0,0.2-0.1,0.3-0.2c0,0,0,0,0-0.1
					c0,0,0-0.1,0-0.1c0,0,0-0.1,0-0.2c0-0.1-0.1-0.2-0.2-0.3c0,0-0.1,0-0.1,0c0,0-0.1,0-0.1,0c-0.1,0-0.1,0-0.2,0
					c-0.1,0-0.3,0.1-0.4,0.1c-0.1,0-0.1,0.1-0.2,0.1c0,0.1-0.1,0.1-0.1,0.2c-0.1,0.1-0.1,0.3-0.1,0.4c0,0.1,0,0.3,0.1,0.4
					c0.1,0.1,0.1,0.2,0.2,0.3c0.1,0.1,0.1,0.1,0.2,0.2C153.6,134.9,153.7,134.9,153.7,134.9z"/>
			</g>
		</g>
		<g>
			<g>
				<rect x="122.2" y="50.4" fill="#EACFAB" width="73" height="77.4"/>
				<polygon fill="#E8DAC4" points="129.1,125 129.1,50.4 122.2,50.4 122.2,127.7 195.2,127.7 195.2,125 				"/>
				<g>
					<path fill-rule="evenodd" clip-rule="evenodd" fill="#945E25" d="M183.8,17.3c6.9,0.8,11.9,6.1,13,13.1
						c0.8-1.8,1.6-3.6,2.5-5.9c15.9,17.6-1.3,35.1-14.3,37.6c-10.9,2.1-24.9-3.2-34.4-8.5c-7.6-4.2-15.5-2.9-18.9,3.6
						c-3,5.6-4.1,13.6-5.8,19.4h-7c-4.3-10.2-7.8-19.4-4-31c3.8-11.6,18.4-4.6,18.9-4.3c1.6-2.5,2.6-5,4.5-7
						c4.4-4.5,12.3-8.5,21.2-6.8c4.9,0.9,10.3,4.4,15.3,4.3c10.1-0.1,13.8-4.3,10.6-11.2C185,19.7,184.5,18.8,183.8,17.3z"/>
					<path fill-rule="evenodd" clip-rule="evenodd" fill="#704615" d="M124.6,42.1c2.7-3.5,9.2-0.7,9.2-0.7
						c7.4-9.5,16.4-3.4,28.3,1.4c14.8,3.7,23.8-1.2,23.8-1.2c-4.7,3.4-10.7,4.2-14.3,4.3c2.9,0.7,6,1.1,9.2,1.1
						c22,0,18.5-22.5,18.5-22.5c15.9,17.6-1.3,35.1-14.3,37.6c-10.9,2.1-24.9-3.2-34.4-8.5c-7.6-4.2-15.5-2.9-18.9,3.6
						c-3,5.6-4.1,13.6-5.8,19.4C117.6,58.5,122,45.6,124.6,42.1z"/>
					<path fill-rule="evenodd" clip-rule="evenodd" fill="#4C2B00" d="M135.5,48.5c14.2-7.4,28.9,7.8,42.4,9.2
						c13.4,1.4,20-2.3,20-2.3c-3.8,3.5-8.5,5.9-12.8,6.7c-10.9,2.1-24.9-3.2-34.4-8.5c-7.6-4.2-15.5-2.9-18.9,3.6
						c-3,5.6-4.1,13.6-5.8,19.4C125.1,67.6,124.4,54.3,135.5,48.5z"/>
					<path fill-rule="evenodd" clip-rule="evenodd" fill="#704615" d="M189.4,24.5c0,0,2.2,6.3-1.9,9.3c-4.1,3-9.8,3-14.2,2
						c0,0,10.4,4.9,16-0.4C194.9,30,189.4,24.5,189.4,24.5z"/>
					<g>
						<g>
							<path fill-rule="evenodd" clip-rule="evenodd" fill="#E8DAC4" d="M150.7,53.6c9.6,5.3,23.5,10.6,34.4,8.5
								c2.3-0.4,5.7-1.7,9-3.8c0,0-1.8,8.1-14.5,8.1c-9.4,0-17.9-1.5-25.8-8.4c-6.6-5.7-12.6-6.8-12.6-6.8l0.5,0
								C144.5,51.1,147.6,51.9,150.7,53.6z"/>
						</g>
					</g>
					<path fill-rule="evenodd" clip-rule="evenodd" fill="#945E25" d="M198.8,54.5c0,0,4.7,3.6-4.2,22l-0.5-18.2
						C194.1,58.4,196.1,57.2,198.8,54.5z"/>
					<path fill-rule="evenodd" clip-rule="evenodd" fill="#704615" d="M196.8,56.4c0,0,2.8,2.5-2.2,20.1l-0.5-18.2
						C194.1,58.4,196,57,196.8,56.4z"/>
					<path fill-rule="evenodd" clip-rule="evenodd" fill="#4C2B00" d="M199.5,43c0,0-4.4,11.6-19.9,9.5
						C179.6,52.5,198.4,58.4,199.5,43z"/>
				</g>
				<g>
					<g>
						<ellipse fill="#E4C79F" cx="121.1" cy="81.4" rx="6.7" ry="6.3"/>
						<path fill="#F0E0C9" d="M121.1,75.7c3.6,0,6.5,2.7,6.7,6c0-0.1,0-0.2,0-0.3c0-3.5-3-6.3-6.7-6.3c-3.7,0-6.7,2.8-6.7,6.3
							c0,0.1,0,0.2,0,0.3C114.6,78.3,117.5,75.7,121.1,75.7z"/>
						<path fill="#E8DAC4" d="M121.1,84.5c3.1,0,5.7-2,6.5-4.7c0.1,0.5,0.2,1.1,0.2,1.6c0,3.5-3,6.3-6.7,6.3c-3.7,0-6.7-2.8-6.7-6.3
							c0-0.6,0.1-1.1,0.2-1.6C115.4,82.5,118,84.5,121.1,84.5z"/>
					</g>
				</g>
			</g>
			<g>
				<path fill="#945E25" d="M166.1,104.3c0-3.2,1.7-5.9,5-5.9c9.3,0,7.1,8.6,13.4,8.6c3.8,0,4.4-5.1,4.4-5.1s0.3,6.3-4.2,9.4
					c-5.3,3.6-11.7,3.9-16,0.3C167.2,110.4,166.1,108,166.1,104.3z"/>
				<path fill="#704615" d="M188.3,104c-0.5,1.2-1.4,2.5-3,2.9c-5.7,3.6-6.3-2.4-11.3-5.8c-1.9-1.3-5.7-0.8-7.9,2.8
					c0,0.2,0,0.3,0,0.5c0,3.7,1.1,6.1,2.5,7.3c4.4,3.5,10.8,3.3,16-0.3c3.2-2.2,4-6,4.2-8.1C188.6,103.5,188.5,103.8,188.3,104z"/>
				<path fill="#4C2B00" d="M187.6,105.3c-0.6,1.1-1.5,2.2-2.7,3.1c-5.4,3.7-12,4-16.5,0.4c-1-0.8-1.8-2.1-2.2-4
					c0.1,3.4,1.1,5.7,2.5,6.8c4.4,3.5,10.8,3.3,16-0.3c4.5-3.1,4.2-9.4,4.2-9.4S188.6,103.8,187.6,105.3z"/>
				<path fill="#945E25" d="M169.4,104.3c0-3.2-0.1-6-4.8-6c-11.4,0-12.5,8.6-21.6,8.6c-5.5,0-6.3-5.1-6.3-5.1s-0.4,6.3,6.1,9.4
					c7.6,3.6,16.8,3.9,23.1,0.3C167.9,110.5,169.4,108,169.4,104.3z"/>
				<path fill="#704615" d="M169.2,101.1c-4-3.1-8.1,0-9.5,1.8c-5.5,6.5-11.7,7.7-20.1,3.7c-0.9-0.4-2.5-1.8-2.9-4.7
					c0,4.6,2.7,7.8,6.1,9.4c7.6,3.6,16.8,3.9,23.1,0.3c2.1-1.2,3.6-3.6,3.6-7.3C169.4,102.9,169.6,102.1,169.2,101.1z"/>
				<path fill="#4C2B00" d="M169.2,101.1c0,0.1,0,0.1,0,0.2c0,3.8-1.6,6.3-3.7,7.5c-6.5,3.6-16,3.4-23.8-0.4
					c-2.4-1.1-3.9-2.7-4.8-4.3c0.5,2.1,1.9,5.2,5.8,7.1c7.6,3.6,16.8,3.9,23.1,0.3c2.1-1.2,3.6-3.6,3.6-7.3
					C169.4,103.2,169.4,102,169.2,101.1z"/>
				<polygon fill="#945E25" points="160.7,116.2 171.5,116.2 166.1,123.8 				"/>
				<polygon fill="#704615" points="162.7,116.2 160.7,116.2 166.1,123.8 167.1,122.5 				"/>
			</g>
			<g>
				<path fill="#704615" d="M174.4,96.3l-0.3-3.6c-0.1-1.2-0.2-2.4-0.3-3.6c-0.1-1.2-0.2-2.4-0.4-3.6l-0.4-3.6
					c-0.1-0.6-0.2-1.2-0.3-1.8c-0.1-0.6-0.2-1.2-0.3-1.8c-0.1-0.6-0.3-1.2-0.5-1.8c-0.3-0.6-0.6-1.2-1.2-1.7c-0.6-0.5-1.3-0.7-2-0.7
					c-0.7,0-1.3,0.1-2,0.3c-0.6,0.2-1.2,0.6-1.7,1c-0.4,0.5-0.7,1.1-0.7,1.7c0.1-0.6,0.5-1.1,0.9-1.5c0.5-0.4,1-0.6,1.6-0.7
					c0.6-0.1,1.2-0.1,1.8-0.1c0.6,0.1,1.1,0.3,1.4,0.6c0.4,0.4,0.6,0.9,0.8,1.4c0.2,0.5,0.3,1.1,0.4,1.7c0.1,0.6,0.2,1.2,0.2,1.8
					c0.1,0.6,0.1,1.2,0.2,1.8l0.3,3.6c0.1,1.2,0.2,2.4,0.3,3.6c0.1,1.2,0.2,2.4,0.3,3.6l0.3,2.8c-2.2,0-4.5,0.1-6.7,0.1
					c-1.3,0-2.5,0.1-3.8,0.1c-1.1,0-2.1,0-3.2,0.1l0.3-2.8l0.3-3.2l2.5,0.1l2.8,0.1l-2.7-0.4l-2.7-0.3c-0.1,0-0.3,0.1-0.3,0.2l0,0
					l-0.6,3.4l-0.6,3.4c0,0,0,0,0,0.1c0,0.3,0.2,0.5,0.5,0.5l0,0c1.3,0,2.5,0.1,3.8,0.1c1.3,0,2.5,0.1,3.8,0.1
					c2.5,0,5.1,0.1,7.6,0.1c0,0,0,0,0.1,0C174.1,97.1,174.4,96.8,174.4,96.3L174.4,96.3z"/>
				<g>
					<g>
						<g>
							<ellipse fill="#231F20" cx="148.2" cy="77" rx="2.8" ry="2.5"/>
							<ellipse fill="#FFFFFF" cx="149.3" cy="75.9" rx="0.9" ry="0.8"/>
							<ellipse fill="#FFFFFF" cx="150.3" cy="77" rx="0.4" ry="0.3"/>
						</g>
						<g>
							<ellipse fill="#231F20" cx="183.2" cy="77" rx="2.8" ry="2.5"/>
							<ellipse fill="#FFFFFF" cx="184.3" cy="75.9" rx="0.9" ry="0.8"/>
							<ellipse fill="#FFFFFF" cx="185.3" cy="77" rx="0.4" ry="0.3"/>
						</g>
					</g>
					<g>
						<path fill-rule="evenodd" clip-rule="evenodd" fill="#231F20" d="M206.3,68.2c-8.4-2.7-16.4-3.8-25.7-2.1
							c-1.6,0.3-7.1,1.9-7.6,2c-1.3,0.3-2.5,0.5-3.8,0.5v0c-0.2,0-0.4,0-0.5,0c-0.2,0-0.4,0-0.5,0v0c-1.2,0-2.5-0.2-3.8-0.5
							c-0.5-0.1-6-1.7-7.6-2c-9.3-1.7-22.5-1.6-30.9,1.1c0.1,1.9-0.5,4.5,0,6.4c0.3,1,1.6,2.1,2.3,3c2,3,3,7.6,5.6,10
							c3.2,2.9,10.5,3.1,16.5,2.8c8.9-0.5,11.2-4.5,14-10.3c1-2,1.7-4.6,3.9-4.9v0c0.2,0,0.4,0,0.5,0c0.2,0,0.4,0,0.5,0v0
							c2.2,0.4,3,3,3.9,4.9c2.8,5.8,5.5,8.6,14.4,8.9c4.3,0.1,8.4-0.3,11.6-3.2c2.6-2.3,2.9-5.2,4.8-8.2c0.6-0.9,2-2.1,2.3-3
							L206.3,68.2z M161.7,79c-1.1,3.5-2.7,6.1-5.6,7.5c-4.3,2.1-14.8,2.3-19,0c-2.9-1.6-3.9-4.5-4.7-8.3c-0.5-2.5-0.8-6.1,0.4-7.7
							c2.1-2.8,11.3-2.9,16.8-2.6c5.2,0.3,11.8,1.5,12.8,4.4C163.1,74.4,162.3,77.3,161.7,79z M201.2,78.2c-0.7,3.8-1.9,5.2-4.8,6.7
							c-4.2,2.3-11.5,2.3-15.8,0.2c-2.9-1.4-3.7-2.6-4.8-6.1c-0.6-1.7-1.4-4.6-0.7-6.7c1-3,7.6-4.1,12.8-4.4
							c5.5-0.3,12.1,0.4,13.4,3.6C201.8,72.7,201.6,75.6,201.2,78.2z"/>
						<g>
							<path fill="#9EDCF8" d="M187.8,67.8c-5.2,0.3-11.8,1.5-12.8,4.4c-0.7,2.1,0.1,5,0.7,6.7c1.1,3.5,2,4.7,4.8,6.1
								c4.3,2.1,11.6,2.1,15.8-0.2c2.9-1.6,4.1-2.9,4.8-6.7c0.5-2.5,0.6-5.5,0.1-6.7C199.9,68.2,193.3,67.5,187.8,67.8z"/>
							<g>
								
									<linearGradient id="SVGID_1_" gradientUnits="userSpaceOnUse" x1="188.5379" y1="67.1677" x2="178.5781" y2="84.9874" gradientTransform="matrix(1 0 0 1 1.7436 0)">
									<stop  offset="0" style="stop-color:#E1F3FC"/>
									<stop  offset="0.4445" style="stop-color:#EBF7FD"/>
									<stop  offset="1" style="stop-color:#FFFFFF"/>
								</linearGradient>
								<path opacity="0.3" fill="url(#SVGID_1_)" d="M190.9,67.8c-1.6,0-3.8,0.1-5.7,0.3l-8.5,13.4c0.7,1.5,1.7,2.4,3.1,3.2
									c1.1,0.6,2.1,1.1,4.2,1.5l11.4-18C193.8,67.9,192.2,67.8,190.9,67.8z"/>
								
									<linearGradient id="SVGID_2_" gradientUnits="userSpaceOnUse" x1="172.8053" y1="77.8469" x2="200.9805" y2="77.8469" gradientTransform="matrix(1 0 0 1 1.7436 0)">
									<stop  offset="0" style="stop-color:#E1F3FC"/>
									<stop  offset="0.4445" style="stop-color:#EBF7FD"/>
									<stop  offset="1" style="stop-color:#FFFFFF"/>
								</linearGradient>
								<path opacity="0.3" fill="url(#SVGID_2_)" d="M198.5,69.1l-11.1,17.6c0.6,0,1,0,1.6,0l10.8-16.9
									C199.3,69.5,199,69.2,198.5,69.1z"/>
							</g>
						</g>
						<g>
							<g>
								<path fill="#9EDCF8" d="M149.6,67.9c-5.5-0.3-14.7-0.3-16.8,2.6c-1.2,1.6-0.9,5.2-0.4,7.7c0.7,3.8,1.8,6.7,4.7,8.3
									c4.2,2.3,14.7,2.1,19,0c2.9-1.4,4.4-3.9,5.6-7.5c0.6-1.7,1.4-4.6,0.7-6.7C161.3,69.3,154.8,68.2,149.6,67.9z"/>
							</g>
							<g>
								
									<linearGradient id="SVGID_3_" gradientUnits="userSpaceOnUse" x1="146.972" y1="67.2181" x2="136.0023" y2="86.8447" gradientTransform="matrix(1 0 0 1 1.7436 0)">
									<stop  offset="0" style="stop-color:#E1F3FC"/>
									<stop  offset="0.4445" style="stop-color:#EBF7FD"/>
									<stop  offset="1" style="stop-color:#FFFFFF"/>
								</linearGradient>
								<path opacity="0.3" fill="url(#SVGID_3_)" d="M149.6,67.8c-1.8-0.1-4.1-0.2-6.4-0.1l-9.5,15c0.7,1.6,1.8,2.9,3.3,3.8
									c1.2,0.7,2.9,1.1,4.9,1.4l12.4-19.5C152.8,68.1,151.1,67.9,149.6,67.8z"/>
								
									<linearGradient id="SVGID_4_" gradientUnits="userSpaceOnUse" x1="130.2679" y1="78.6514" x2="160.9336" y2="78.6514" gradientTransform="matrix(1 0 0 1 1.7436 0)">
									<stop  offset="0" style="stop-color:#E1F3FC"/>
									<stop  offset="0.4445" style="stop-color:#EBF7FD"/>
									<stop  offset="1" style="stop-color:#FFFFFF"/>
								</linearGradient>
								<path opacity="0.3" fill="url(#SVGID_4_)" d="M158,69.2l-12,18.9c0.6,0,1.2,0,1.8,0l11.7-18.4C159,69.5,158.5,69.3,158,69.2
									z"/>
							</g>
						</g>
					</g>
				</g>
			</g>
		</g>
	</g>
	<g>
		<path fill="#FFFFFF" d="M108.1,294.4c-2.5,0-5.6-0.8-6.5-2.2c-0.2-0.3-0.3-0.6-0.3-0.9c0-1,0.9-1.7,1.7-1.7c0.3,0,0.7,0.1,1,0.3
			c1.2,0.8,2.6,1.3,4.3,1.3c2,0,3-0.9,3-1.9c0-3-9.9-1-9.9-7.4c0-2.9,2.5-5.2,6.5-5.2c2,0,4.9,0.6,5.9,1.9c0.2,0.3,0.3,0.6,0.3,0.9
			c0,1-1,1.6-1.8,1.6c-0.3,0-0.6-0.1-0.9-0.3c-1.2-0.7-2.5-1-3.8-1c-1.6,0-2.4,0.7-2.4,1.7c0,2.7,9.9,0.9,9.9,7.3
			C115,292.1,112.8,294.4,108.1,294.4z"/>
		<path fill="#FFFFFF" d="M121.2,294.4c-2.3,0-3.5-1.2-3.5-3.4v-6.5h-0.8c-0.8,0-1.4-0.6-1.4-1.5c0-0.7,0.6-1.4,1.4-1.4h0.8v-1.9
			c0-0.9,0.7-1.6,1.7-1.6c0.9,0,1.6,0.7,1.6,1.6v1.9h1.3c0.7,0,1.4,0.6,1.4,1.4c0,0.8-0.6,1.4-1.4,1.4H121v5.6c0,1,0.6,1.4,1.1,1.4
			c0.1,0,0.2,0,0.3,0c0.9,0,1.4,0.6,1.4,1.4C123.9,293.8,123.4,294.4,121.2,294.4z"/>
		<path fill="#FFFFFF" d="M134.9,294.3h-0.3c-0.3,0-1.4-0.2-1.4-1.4c-0.9,1-2.3,1.6-3.9,1.6c-2,0-4.3-1.3-4.3-4.1c0-2.9,2.3-4,4.3-4
			c1.6,0,3.1,0.5,3.9,1.5v-1.7c0-1.3-1.1-2.1-2.7-2.1c-1,0-1.9,0.2-2.8,0.8c-0.2,0.1-0.4,0.2-0.6,0.2c-0.6,0-1.2-0.5-1.2-1.3
			c0-0.2,0.1-0.5,0.2-0.6c0.8-1.2,3.6-1.8,5-1.8c2.8,0,5.4,1.1,5.4,4.7v6.6C136.5,293.6,135.8,294.3,134.9,294.3z M133.2,289.6
			c-0.5-0.7-1.6-1.1-2.6-1.1c-1.3,0-2.3,0.7-2.3,1.9c0,1.2,1.1,1.8,2.3,1.8c1.1,0,2.1-0.4,2.6-1.1V289.6z"/>
		<path fill="#FFFFFF" d="M150.7,283.7l-5,12.4c-0.9,2.2-2.4,3-4.3,3c-1.1,0-2-0.6-2-1.5c0-0.8,0.6-1.4,1.5-1.4c0.1,0,0.3,0,0.4,0
			c0.5-0.1,1-0.4,1.2-0.9l0.5-1.1l-4.3-10.6c-0.1-0.2-0.1-0.4-0.1-0.5c0-0.8,0.6-1.6,1.6-1.6c0.6,0,1.3,0.4,1.5,1.1l2.9,7.7l2.9-7.7
			c0.2-0.6,0.9-1.1,1.6-1.1c1,0,1.6,0.8,1.6,1.6C150.8,283.3,150.8,283.5,150.7,283.7z"/>
		<path fill="#FFFFFF" d="M174.3,279.5c0.2,0.3,0.4,0.7,0.4,1c0,0.9-0.8,1.6-1.8,1.6c-0.5,0-1-0.2-1.3-0.6c-1-1-2.2-1.6-3.5-1.6
			c-3.1,0-5.4,2.4-5.4,5.6s2.3,5.6,5.4,5.6c1.3,0,2.6-0.6,3.5-1.6c0.4-0.4,0.9-0.6,1.4-0.6c0.9,0,1.7,0.7,1.7,1.6
			c0,0.4-0.1,0.7-0.4,1c-1.3,1.6-3.3,2.9-6.2,2.9c-5.2,0-9.1-3.6-9.1-8.9s4-8.9,9.1-8.9C171,276.7,172.9,277.9,174.3,279.5z"/>
		<path fill="#FFFFFF" d="M183.1,294.4c-4.1,0-6.6-3-6.6-6.5c0-3.5,2.5-6.5,6.6-6.5c4.1,0,6.6,3,6.6,6.5
			C189.7,291.4,187.2,294.4,183.1,294.4z M183.1,284.3c-2,0-3.2,1.7-3.2,3.6c0,2,1.1,3.6,3.2,3.6s3.2-1.7,3.2-3.6
			C186.3,286,185.1,284.3,183.1,284.3z"/>
		<path fill="#FFFFFF" d="M197.9,294.4c-4.1,0-6.6-3-6.6-6.5c0-3.5,2.5-6.5,6.6-6.5c4.1,0,6.6,3,6.6,6.5
			C204.5,291.4,202,294.4,197.9,294.4z M197.9,284.3c-2,0-3.2,1.7-3.2,3.6c0,2,1.1,3.6,3.2,3.6s3.2-1.7,3.2-3.6
			C201.1,286,199.9,284.3,197.9,284.3z"/>
		<path fill="#FFFFFF" d="M208.5,294.3c-0.9,0-1.6-0.7-1.6-1.6v-14.3c0-0.9,0.7-1.6,1.7-1.6c0.9,0,1.6,0.7,1.6,1.6v14.3
			C210.2,293.6,209.4,294.3,208.5,294.3z"/>
		<path fill="#FFFFFF" d="M215.1,294.4c-1.1,0-2.1-1-2.1-2.1c0-1.1,0.9-2.1,2.1-2.1s2.1,1,2.1,2.1
			C217.2,293.4,216.2,294.4,215.1,294.4z M216.6,287.3c0,0.8-0.7,1.4-1.5,1.4c-0.8,0-1.4-0.6-1.5-1.4c-0.1-2.9-0.4-8.1-0.4-8.6
			c0-1.1,0.8-1.9,1.9-1.9c1.1,0,1.9,0.8,1.9,1.9C217,279.2,216.7,284.4,216.6,287.3z"/>
	</g>
</g>
<g>
</g>
<g>
</g>
<g>
</g>
<g>
</g>
<g>
</g>
<g>
</g>
<g>
</g>
<g>
</g>
<g>
</g>
<g>
</g>
<g>
</g>
<g>
</g>
<g>
</g>
<g>
</g>
<g>
</g>
</svg>
